<?xml version="1.0" encoding="UTF-8" standalone="no"?>
<!-- Created with Inkscape (http://www.inkscape.org/) -->

<svg
   xmlns:ns0="http://www.iki.fi/pav/software/textext/"
   xmlns:dc="http://purl.org/dc/elements/1.1/"
   xmlns:cc="http://creativecommons.org/ns#"
   xmlns:rdf="http://www.w3.org/1999/02/22-rdf-syntax-ns#"
   xmlns:svg="http://www.w3.org/2000/svg"
   xmlns="http://www.w3.org/2000/svg"
   xmlns:sodipodi="http://sodipodi.sourceforge.net/DTD/sodipodi-0.dtd"
   xmlns:inkscape="http://www.inkscape.org/namespaces/inkscape"
   width="383.7139mm"
   height="187.17761mm"
   viewBox="0 0 383.7139 187.17761"
   version="1.1"
   id="svg8"
   inkscape:version="0.92.3 (2405546, 2018-03-11)"
   sodipodi:docname="monotone_operators.svg">
  <sodipodi:namedview
     id="base"
     pagecolor="#ffffff"
     bordercolor="#666666"
     borderopacity="1.0"
     inkscape:pageopacity="0.0"
     inkscape:pageshadow="2"
     inkscape:zoom="0.9899495"
     inkscape:cx="493.88315"
     inkscape:cy="426.97489"
     inkscape:document-units="mm"
     inkscape:current-layer="layer1"
     showgrid="true"
     inkscape:window-width="3840"
     inkscape:window-height="2035"
     inkscape:window-x="5459"
     inkscape:window-y="-13"
     inkscape:window-maximized="1">
    <inkscape:grid
       type="xygrid"
       id="grid19457"
       originx="95.318069"
       originy="-66.678543" />
  </sodipodi:namedview>
  <defs
     id="defs2">
    <marker
       inkscape:stockid="Arrow1Lend"
       orient="auto"
       refY="0"
       refX="0"
       id="marker1405"
       style="overflow:visible"
       inkscape:isstock="true">
      <path
         id="path1403"
         d="M 0,0 5,-5 -12.5,0 5,5 Z"
         style="fill:#000000;fill-opacity:1;fill-rule:evenodd;stroke:#000000;stroke-width:1.00000003pt;stroke-opacity:1"
         transform="matrix(-0.8,0,0,-0.8,-10,0)"
         inkscape:connector-curvature="0" />
    </marker>
    <marker
       inkscape:isstock="true"
       style="overflow:visible"
       id="marker1359"
       refX="0"
       refY="0"
       orient="auto"
       inkscape:stockid="Arrow1Lend">
      <path
         transform="matrix(-0.8,0,0,-0.8,-10,0)"
         style="fill:#000000;fill-opacity:1;fill-rule:evenodd;stroke:#000000;stroke-width:1.00000003pt;stroke-opacity:1"
         d="M 0,0 5,-5 -12.5,0 5,5 Z"
         id="path1357"
         inkscape:connector-curvature="0" />
    </marker>
    <marker
       inkscape:isstock="true"
       style="overflow:visible"
       id="marker1319"
       refX="0"
       refY="0"
       orient="auto"
       inkscape:stockid="Arrow1Lend"
       inkscape:collect="always">
      <path
         transform="matrix(-0.8,0,0,-0.8,-10,0)"
         style="fill:#000000;fill-opacity:1;fill-rule:evenodd;stroke:#000000;stroke-width:1.00000003pt;stroke-opacity:1"
         d="M 0,0 5,-5 -12.5,0 5,5 Z"
         id="path1317"
         inkscape:connector-curvature="0" />
    </marker>
    <marker
       inkscape:stockid="Arrow1Lend"
       orient="auto"
       refY="0"
       refX="0"
       id="Arrow1Lend"
       style="overflow:visible"
       inkscape:isstock="true"
       inkscape:collect="always">
      <path
         id="path822"
         d="M 0,0 5,-5 -12.5,0 5,5 Z"
         style="fill:#000000;fill-opacity:1;fill-rule:evenodd;stroke:#000000;stroke-width:1.00000003pt;stroke-opacity:1"
         transform="matrix(-0.8,0,0,-0.8,-10,0)"
         inkscape:connector-curvature="0" />
    </marker>
    <marker
       inkscape:stockid="Arrow1Lstart"
       orient="auto"
       refY="0"
       refX="0"
       id="Arrow1Lstart"
       style="overflow:visible"
       inkscape:isstock="true">
      <path
         id="path819"
         d="M 0,0 5,-5 -12.5,0 5,5 Z"
         style="fill:#000000;fill-opacity:1;fill-rule:evenodd;stroke:#000000;stroke-width:1.00000003pt;stroke-opacity:1"
         transform="matrix(0.8,0,0,0.8,10,0)"
         inkscape:connector-curvature="0" />
    </marker>
  </defs>
  <metadata
     id="metadata5">
    <rdf:RDF>
      <cc:Work
         rdf:about="">
        <dc:format>image/svg+xml</dc:format>
        <dc:type
           rdf:resource="http://purl.org/dc/dcmitype/StillImage" />
        <dc:title></dc:title>
      </cc:Work>
    </rdf:RDF>
  </metadata>
  <g
     inkscape:label="Layer 1"
     inkscape:groupmode="layer"
     id="layer1"
     transform="translate(95.318065,-43.143838)">
    <path
       style="fill:none;stroke:#000000;stroke-width:0.59531248px;stroke-linecap:butt;stroke-linejoin:miter;stroke-opacity:1;marker-end:url(#marker1319)"
       d="m -95.318065,136.21078 c 2.104747,0 159.359457,0 159.359457,0"
       id="path1257"
       inkscape:connector-curvature="0" />
    <path
       style="fill:none;stroke:#000000;stroke-width:0.59531248px;stroke-linecap:butt;stroke-linejoin:miter;stroke-opacity:1;marker-end:url(#Arrow1Lend)"
       d="m -15.939015,216.1912 c -0.902035,-8.11831 0,-156.954016 0,-156.954016"
       id="path1259"
       inkscape:connector-curvature="0" />
    <path
       style="fill:none;stroke:#000000;stroke-width:0.59531248px;stroke-linecap:butt;stroke-linejoin:miter;stroke-opacity:1;marker-end:url(#marker1405)"
       d="m 119.13973,135.38875 155.75131,0.60135"
       id="path1261"
       inkscape:connector-curvature="0" />
    <path
       style="fill:none;stroke:#000000;stroke-width:0.59531248px;stroke-linecap:butt;stroke-linejoin:miter;stroke-opacity:1;marker-end:url(#marker1359)"
       d="M 196.41706,215.66985 197.01841,59.918506"
       id="path1263"
       inkscape:connector-curvature="0" />
    <g
       style="font-style:normal;font-variant:normal;font-weight:normal;font-stretch:normal;letter-spacing:normal;word-spacing:normal;text-anchor:start;fill:none;fill-opacity:1;fill-rule:evenodd;stroke:#000000;stroke-linecap:butt;stroke-linejoin:miter;stroke-miterlimit:10.43299961;stroke-dasharray:none;stroke-dashoffset:0;stroke-opacity:1"
       ns0:jacobian_sqrt="0.705556"
       ns0:alignment="middle center"
       ns0:scale="2.00000008505"
       ns0:preamble="C:\\Users\\Shuvomoy Das Gupta\\AppData\\Roaming\\inkscape\\extensions\\default_packages.tex"
       ns0:text="$\\mathop{{\\bf gra}}A$"
       ns0:pdfconverter="pstoedit"
       ns0:texconverter="pdflatex"
       ns0:version="0.8.1"
       word-spacing="normal"
       letter-spacing="normal"
       font-size-adjust="none"
       font-stretch="normal"
       font-weight="normal"
       font-variant="normal"
       font-style="normal"
       stroke-miterlimit="10.433"
       xml:space="preserve"
       transform="matrix(1.1112507,0,0,-1.1112507,-247.808,907.5946)"
       id="g1622">
<path
   id="path1614"
   style="fill:#000000;fill-opacity:1;stroke:#000000;stroke-width:0;stroke-opacity:1"
   d="m 150.04,659.02 0.04,-0.02 0.04,-0.02 0.05,-0.02 0.04,-0.02 0.05,-0.01 0.04,-0.02 0.04,-0.01 0.05,-0.02 0.04,-0.01 0.04,-0.01 0.05,-0.01 0.04,-0.01 0.08,-0.02 0.09,-0.02 h 0.04 l 0.03,-0.01 h 0.04 l 0.04,-0.01 h 0.04 0.03 l 0.04,-0.01 h 0.03 0.04 0.03 0.03 0.03 0.03 0.03 0.02 0.03 v 0.35 c -0.88,0 -0.88,0.67 -0.88,1.11 0,0.45 0,1.12 0.88,1.12 0.87,0 0.87,-0.67 0.87,-1.12 0,-0.44 0,-1.11 -0.87,-1.11 v 0 -0.35 c 1.43,0 1.98,0.77 1.98,1.46 0,0.47 -0.25,0.8 -0.4,0.96 0.3,0.16 0.51,0.18 0.62,0.19 -0.02,-0.05 -0.04,-0.14 -0.04,-0.2 0,-0.25 0.17,-0.43 0.43,-0.43 0.26,0 0.43,0.19 0.43,0.43 0,0.23 -0.17,0.58 -0.63,0.58 -0.15,0 -0.62,-0.04 -1.06,-0.38 -0.18,0.12 -0.6,0.33 -1.33,0.33 -1.44,0 -1.99,-0.78 -1.99,-1.48 0,-0.4 0.2,-0.81 0.52,-1.04 -0.28,-0.35 -0.34,-0.67 -0.34,-0.88 0,-0.15 0.04,-0.64 0.44,-0.96 -0.13,-0.03 -0.86,-0.23 -0.86,-0.86 0,-0.51 0.55,-1.25 2.54,-1.25 v 0.36 c -1.19,0 -1.68,0.45 -1.68,0.91 0,0.6 0.63,0.6 0.77,0.6 v 0 h 1.16 c 0.31,0 1.44,0 1.44,-0.62 0,-0.36 -0.39,-0.89 -1.69,-0.89 v -0.36 c 1.77,0 2.55,0.58 2.55,1.28 0,0.3 -0.08,0.92 -0.75,1.26 -0.56,0.28 -1.16,0.28 -2.11,0.28 -0.26,0 -0.72,0 -0.77,0.01 -0.44,0.07 -0.55,0.45 -0.55,0.63 0,0.09 0.04,0.24 0.1,0.32 z"
   inkscape:connector-curvature="0" />
<path
   id="path1616"
   style="fill:#000000;fill-opacity:1;stroke:#000000;stroke-width:0;stroke-opacity:1"
   d="m 156.46,660.58 v 1.13 l -1.65,-0.08 v -0.47 c 0.62,0 0.69,0 0.69,-0.39 v -3.07 h -0.69 v -0.47 c 0.35,0.01 0.8,0.04 1.26,0.04 0.38,0 1.01,0 1.37,-0.04 v 0.47 h -0.87 v 1.74 c 0,0.7 0.25,1.91 1.25,1.91 -0.01,-0.01 -0.19,-0.17 -0.19,-0.46 0,-0.41 0.32,-0.61 0.61,-0.61 0.29,0 0.61,0.21 0.61,0.61 0,0.53 -0.54,0.82 -1.06,0.82 -0.7,0 -1.1,-0.5 -1.33,-1.13 z"
   inkscape:connector-curvature="0" />
<path
   id="path1618"
   style="fill:#000000;fill-opacity:1;stroke:#000000;stroke-width:0;stroke-opacity:1"
   d="m 162.89,658 v -0.06 -0.06 -0.03 -0.03 l 0.01,-0.04 v -0.03 l 0.01,-0.03 0.01,-0.03 0.01,-0.04 0.01,-0.03 0.02,-0.03 0.01,-0.03 0.02,-0.03 0.03,-0.03 0.02,-0.03 0.03,-0.02 0.04,-0.03 0.01,-0.01 0.02,-0.01 0.02,-0.02 0.02,-0.01 0.02,-0.01 0.02,-0.01 0.03,-0.01 0.02,-0.01 0.03,-0.01 0.03,-0.01 0.02,-0.01 0.03,-0.01 h 0.03 l 0.03,-0.01 0.04,-0.01 h 0.03 l 0.04,-0.01 h 0.03 l 0.04,-0.01 h 0.04 l 0.04,-0.01 h 0.04 0.05 0.04 0.05 l 0.05,-0.01 h 0.47 c 0.2,0 0.32,0 0.32,0.24 0,0.23 -0.13,0.23 -0.26,0.23 -0.6,0.01 -0.6,0.14 -0.6,0.37 v 2.14 c 0,0.88 -0.71,1.52 -2.2,1.52 -0.57,0 -1.78,-0.03 -1.78,-0.91 0,-0.44 0.35,-0.62 0.61,-0.62 0.31,0 0.63,0.2 0.63,0.62 0,0.3 -0.19,0.47 -0.22,0.49 0.28,0.06 0.6,0.07 0.72,0.07 0.75,0 1.1,-0.42 1.1,-1.17 v -0.34 -0.31 -0.94 c 0,-0.96 -0.92,-1.09 -1.17,-1.09 -0.51,0 -0.9,0.35 -0.9,0.79 0,1.07 1.57,1.21 2.07,1.24 v 0 0.31 c -0.71,-0.03 -3.24,-0.12 -3.24,-1.56 0,-0.96 1.23,-1.14 1.92,-1.14 0.8,0 1.27,0.41 1.49,0.83 z"
   inkscape:connector-curvature="0" />
<path
   id="path1620"
   style="fill:#000000;fill-opacity:1;stroke:#000000;stroke-width:0;stroke-opacity:1"
   d="m 168.17,658.38 -0.03,-0.06 -0.04,-0.06 -0.04,-0.06 -0.04,-0.05 -0.03,-0.05 -0.04,-0.04 -0.04,-0.05 -0.03,-0.04 -0.04,-0.04 -0.04,-0.04 -0.04,-0.03 -0.03,-0.03 -0.04,-0.03 -0.04,-0.03 -0.04,-0.02 -0.03,-0.03 -0.04,-0.02 -0.04,-0.02 -0.04,-0.02 -0.04,-0.02 -0.04,-0.01 -0.03,-0.01 -0.04,-0.02 -0.04,-0.01 -0.04,-0.01 -0.04,-0.01 h -0.04 l -0.04,-0.01 -0.08,-0.01 -0.08,-0.01 c -0.12,-0.01 -0.21,-0.01 -0.21,-0.2 0,-0.06 0.05,-0.11 0.13,-0.11 0.27,0 0.58,0.04 0.86,0.04 0.32,0 0.67,-0.04 0.99,-0.04 0.06,0 0.19,0 0.19,0.19 0,0.11 -0.09,0.12 -0.16,0.12 -0.23,0.02 -0.47,0.1 -0.47,0.35 0,0.12 0.06,0.23 0.14,0.37 l 0.76,1.27 h 2.5 l -0.03,0.31 h -2.28 l 1.97,3.28 0.31,-3.28 0.03,-0.31 c 0.02,-0.21 0.16,-1.56 0.16,-1.66 0,-0.3 -0.52,-0.33 -0.71,-0.33 -0.14,0 -0.24,0 -0.24,-0.2 0,-0.11 0.12,-0.11 0.14,-0.11 0.4,0 0.83,0.04 1.24,0.04 0.25,0 0.88,-0.04 1.13,-0.04 0.06,0 0.18,0 0.18,0.2 0,0.11 -0.1,0.11 -0.23,0.11 -0.62,0 -0.62,0.07 -0.65,0.36 l -0.61,6.21 c -0.02,0.2 -0.02,0.24 -0.19,0.24 -0.16,0 -0.2,-0.07 -0.26,-0.17 z"
   inkscape:connector-curvature="0" />
</g>    <g
       id="g1718"
       transform="matrix(1.1112507,0,0,-1.1112507,-133.74474,835.84981)"
       xml:space="preserve"
       stroke-miterlimit="10.433"
       font-style="normal"
       font-variant="normal"
       font-weight="normal"
       font-stretch="normal"
       font-size-adjust="none"
       letter-spacing="normal"
       word-spacing="normal"
       ns0:version="0.8.1"
       ns0:texconverter="pdflatex"
       ns0:pdfconverter="pstoedit"
       ns0:text="$\\mathop{{\\bf gra}}B$"
       ns0:preamble="C:\\Users\\Shuvomoy Das Gupta\\AppData\\Roaming\\inkscape\\extensions\\default_packages.tex"
       ns0:scale="2.00000008505"
       ns0:alignment="middle center"
       ns0:jacobian_sqrt="0.705556"
       style="font-style:normal;font-variant:normal;font-weight:normal;font-stretch:normal;letter-spacing:normal;word-spacing:normal;text-anchor:start;fill:none;fill-opacity:1;fill-rule:evenodd;stroke:#000000;stroke-linecap:butt;stroke-linejoin:miter;stroke-miterlimit:10.43299961;stroke-dasharray:none;stroke-dashoffset:0;stroke-opacity:1">
<path
   d="m 150.04,659.02 0.04,-0.02 0.04,-0.02 0.05,-0.02 0.04,-0.02 0.05,-0.01 0.04,-0.02 0.04,-0.01 0.05,-0.02 0.04,-0.01 0.04,-0.01 0.05,-0.01 0.04,-0.01 0.08,-0.02 0.09,-0.02 h 0.04 l 0.03,-0.01 h 0.04 l 0.04,-0.01 h 0.04 0.03 l 0.04,-0.01 h 0.03 0.04 0.03 0.03 0.03 0.03 0.03 0.02 0.03 v 0.35 c -0.88,0 -0.88,0.67 -0.88,1.11 0,0.45 0,1.12 0.88,1.12 0.87,0 0.87,-0.67 0.87,-1.12 0,-0.44 0,-1.11 -0.87,-1.11 v 0 -0.35 c 1.43,0 1.98,0.77 1.98,1.46 0,0.47 -0.25,0.8 -0.4,0.96 0.3,0.16 0.51,0.18 0.62,0.19 -0.02,-0.05 -0.04,-0.14 -0.04,-0.2 0,-0.25 0.17,-0.43 0.43,-0.43 0.26,0 0.43,0.19 0.43,0.43 0,0.23 -0.17,0.58 -0.63,0.58 -0.15,0 -0.62,-0.04 -1.06,-0.38 -0.18,0.12 -0.6,0.33 -1.33,0.33 -1.44,0 -1.99,-0.78 -1.99,-1.48 0,-0.4 0.2,-0.81 0.52,-1.04 -0.28,-0.35 -0.34,-0.67 -0.34,-0.88 0,-0.15 0.04,-0.64 0.44,-0.96 -0.13,-0.03 -0.86,-0.23 -0.86,-0.86 0,-0.51 0.55,-1.25 2.54,-1.25 v 0.36 c -1.19,0 -1.68,0.45 -1.68,0.91 0,0.6 0.63,0.6 0.77,0.6 v 0 h 1.16 c 0.31,0 1.44,0 1.44,-0.62 0,-0.36 -0.39,-0.89 -1.69,-0.89 v -0.36 c 1.77,0 2.55,0.58 2.55,1.28 0,0.3 -0.08,0.92 -0.75,1.26 -0.56,0.28 -1.16,0.28 -2.11,0.28 -0.26,0 -0.72,0 -0.77,0.01 -0.44,0.07 -0.55,0.45 -0.55,0.63 0,0.09 0.04,0.24 0.1,0.32 z"
   style="fill:#000000;fill-opacity:1;stroke:#000000;stroke-width:0;stroke-opacity:1"
   id="path1710"
   inkscape:connector-curvature="0" />
<path
   d="m 156.46,660.58 v 1.13 l -1.65,-0.08 v -0.47 c 0.62,0 0.69,0 0.69,-0.39 v -3.07 h -0.69 v -0.47 c 0.35,0.01 0.8,0.04 1.26,0.04 0.38,0 1.01,0 1.37,-0.04 v 0.47 h -0.87 v 1.74 c 0,0.7 0.25,1.91 1.25,1.91 -0.01,-0.01 -0.19,-0.17 -0.19,-0.46 0,-0.41 0.32,-0.61 0.61,-0.61 0.29,0 0.61,0.21 0.61,0.61 0,0.53 -0.54,0.82 -1.06,0.82 -0.7,0 -1.1,-0.5 -1.33,-1.13 z"
   style="fill:#000000;fill-opacity:1;stroke:#000000;stroke-width:0;stroke-opacity:1"
   id="path1712"
   inkscape:connector-curvature="0" />
<path
   d="m 162.89,658 v -0.06 -0.06 -0.03 -0.03 l 0.01,-0.04 v -0.03 l 0.01,-0.03 0.01,-0.03 0.01,-0.04 0.01,-0.03 0.02,-0.03 0.01,-0.03 0.02,-0.03 0.03,-0.03 0.02,-0.03 0.03,-0.02 0.04,-0.03 0.01,-0.01 0.02,-0.01 0.02,-0.02 0.02,-0.01 0.02,-0.01 0.02,-0.01 0.03,-0.01 0.02,-0.01 0.03,-0.01 0.03,-0.01 0.02,-0.01 0.03,-0.01 h 0.03 l 0.03,-0.01 0.04,-0.01 h 0.03 l 0.04,-0.01 h 0.03 l 0.04,-0.01 h 0.04 l 0.04,-0.01 h 0.04 0.05 0.04 0.05 l 0.05,-0.01 h 0.47 c 0.2,0 0.32,0 0.32,0.24 0,0.23 -0.13,0.23 -0.26,0.23 -0.6,0.01 -0.6,0.14 -0.6,0.37 v 2.14 c 0,0.88 -0.71,1.52 -2.2,1.52 -0.57,0 -1.78,-0.03 -1.78,-0.91 0,-0.44 0.35,-0.62 0.61,-0.62 0.31,0 0.63,0.2 0.63,0.62 0,0.3 -0.19,0.47 -0.22,0.49 0.28,0.06 0.6,0.07 0.72,0.07 0.75,0 1.1,-0.42 1.1,-1.17 v -0.34 -0.31 -0.94 c 0,-0.96 -0.92,-1.09 -1.17,-1.09 -0.51,0 -0.9,0.35 -0.9,0.79 0,1.07 1.57,1.21 2.07,1.24 v 0 0.31 c -0.71,-0.03 -3.24,-0.12 -3.24,-1.56 0,-0.96 1.23,-1.14 1.92,-1.14 0.8,0 1.27,0.41 1.49,0.83 z"
   style="fill:#000000;fill-opacity:1;stroke:#000000;stroke-width:0;stroke-opacity:1"
   id="path1714"
   inkscape:connector-curvature="0" />
<path
   d="m 167.99,658.01 -0.01,-0.04 -0.01,-0.03 -0.01,-0.03 -0.01,-0.03 -0.01,-0.03 -0.01,-0.03 -0.01,-0.02 -0.01,-0.03 -0.01,-0.02 -0.01,-0.02 -0.01,-0.02 -0.02,-0.02 -0.01,-0.02 -0.02,-0.01 -0.02,-0.02 -0.02,-0.01 -0.02,-0.01 -0.03,-0.01 -0.03,-0.01 -0.03,-0.01 -0.03,-0.01 h -0.02 l -0.01,-0.01 h -0.02 -0.02 l -0.02,-0.01 h -0.02 -0.02 -0.03 l -0.02,-0.01 h -0.03 -0.02 -0.03 -0.02 -0.03 -0.03 -0.03 l -0.03,-0.01 h -0.03 -0.04 -0.03 -0.04 -0.03 c -0.17,0 -0.27,0 -0.27,-0.2 0,-0.11 0.09,-0.11 0.27,-0.11 h 3.56 c 1.57,0 2.75,1.18 2.75,2.15 0,0.72 -0.58,1.29 -1.55,1.4 1.04,0.19 2.09,0.93 2.09,1.87 0,0.73 -0.66,1.37 -1.86,1.37 l -0.14,-0.31 c 0.88,0 1.09,-0.58 1.09,-1.02 0,-0.87 -0.86,-1.82 -2.07,-1.82 h -1.46 l -0.06,-0.22 h 1.89 c 0.95,0 1.14,-0.73 1.14,-1.16 0,-0.98 -0.89,-1.95 -2.06,-1.95 h -1.36 c -0.14,0 -0.16,0 -0.22,0.01 -0.1,0.01 -0.13,0.02 -0.13,0.1 0,0.03 0,0.05 0.05,0.23 l 0.69,2.77 0.06,0.22 0.62,2.46 c 0.09,0.35 0.11,0.38 0.54,0.38 h 1.28 l 0.14,0.31 h -3.35 c -0.19,0 -0.29,0 -0.29,-0.2 0,-0.11 0.09,-0.11 0.28,-0.11 0.02,0 0.21,0 0.38,-0.02 0.18,-0.02 0.27,-0.03 0.27,-0.16 0,-0.04 -0.01,-0.07 -0.04,-0.19 z"
   style="fill:#000000;fill-opacity:1;stroke:#000000;stroke-width:0;stroke-opacity:1"
   id="path1716"
   inkscape:connector-curvature="0" />
</g>    <g
       style="font-style:normal;font-variant:normal;font-weight:normal;font-stretch:normal;letter-spacing:normal;word-spacing:normal;text-anchor:start;fill:none;fill-opacity:1;fill-rule:evenodd;stroke:#000000;stroke-linecap:butt;stroke-linejoin:miter;stroke-miterlimit:10.43299961;stroke-dasharray:none;stroke-dashoffset:0;stroke-opacity:1"
       ns0:jacobian_sqrt="0.705556"
       ns0:alignment="middle center"
       ns0:scale="2.00000008505"
       ns0:preamble="C:\\Users\\Shuvomoy Das Gupta\\AppData\\Roaming\\inkscape\\extensions\\default_packages.tex"
       ns0:text="$\\mathop{{\\bf gra}}T_{1}=\\mathop{{\\bf gra}}A\\cup\\mathop{{\\bf gra}}B$"
       ns0:pdfconverter="pstoedit"
       ns0:texconverter="pdflatex"
       ns0:version="0.8.1"
       word-spacing="normal"
       letter-spacing="normal"
       font-size-adjust="none"
       font-stretch="normal"
       font-weight="normal"
       font-variant="normal"
       font-style="normal"
       stroke-miterlimit="10.433"
       xml:space="preserve"
       transform="matrix(1.1112507,0,0,-1.1112507,-178.21976,904.96003)"
       id="g1836">
<path
   id="path1804"
   style="fill:#000000;fill-opacity:1;stroke:#000000;stroke-width:0;stroke-opacity:1"
   d="m 150.04,659.02 0.04,-0.02 0.04,-0.02 0.05,-0.02 0.04,-0.02 0.05,-0.01 0.04,-0.02 0.04,-0.01 0.05,-0.02 0.04,-0.01 0.04,-0.01 0.05,-0.01 0.04,-0.01 0.08,-0.02 0.09,-0.02 h 0.04 l 0.03,-0.01 h 0.04 l 0.04,-0.01 h 0.04 0.03 l 0.04,-0.01 h 0.03 0.04 0.03 0.03 0.03 0.03 0.03 0.02 0.03 v 0.35 c -0.88,0 -0.88,0.67 -0.88,1.11 0,0.45 0,1.12 0.88,1.12 0.87,0 0.87,-0.67 0.87,-1.12 0,-0.44 0,-1.11 -0.87,-1.11 v 0 -0.35 c 1.43,0 1.98,0.77 1.98,1.46 0,0.47 -0.25,0.8 -0.4,0.96 0.3,0.16 0.51,0.18 0.62,0.19 -0.02,-0.05 -0.04,-0.14 -0.04,-0.2 0,-0.25 0.17,-0.43 0.43,-0.43 0.26,0 0.43,0.19 0.43,0.43 0,0.23 -0.17,0.58 -0.63,0.58 -0.15,0 -0.62,-0.04 -1.06,-0.38 -0.18,0.12 -0.6,0.33 -1.33,0.33 -1.44,0 -1.99,-0.78 -1.99,-1.48 0,-0.4 0.2,-0.81 0.52,-1.04 -0.28,-0.35 -0.34,-0.67 -0.34,-0.88 0,-0.15 0.04,-0.64 0.44,-0.96 -0.13,-0.03 -0.86,-0.23 -0.86,-0.86 0,-0.51 0.55,-1.25 2.54,-1.25 v 0.36 c -1.19,0 -1.68,0.45 -1.68,0.91 0,0.6 0.63,0.6 0.77,0.6 v 0 h 1.16 c 0.31,0 1.44,0 1.44,-0.62 0,-0.36 -0.39,-0.89 -1.69,-0.89 v -0.36 c 1.77,0 2.55,0.58 2.55,1.28 0,0.3 -0.08,0.92 -0.75,1.26 -0.56,0.28 -1.16,0.28 -2.11,0.28 -0.26,0 -0.72,0 -0.77,0.01 -0.44,0.07 -0.55,0.45 -0.55,0.63 0,0.09 0.04,0.24 0.1,0.32 z"
   inkscape:connector-curvature="0" />
<path
   id="path1806"
   style="fill:#000000;fill-opacity:1;stroke:#000000;stroke-width:0;stroke-opacity:1"
   d="m 156.46,660.58 v 1.13 l -1.65,-0.08 v -0.47 c 0.62,0 0.69,0 0.69,-0.39 v -3.07 h -0.69 v -0.47 c 0.35,0.01 0.8,0.04 1.26,0.04 0.38,0 1.01,0 1.37,-0.04 v 0.47 h -0.87 v 1.74 c 0,0.7 0.25,1.91 1.25,1.91 -0.01,-0.01 -0.19,-0.17 -0.19,-0.46 0,-0.41 0.32,-0.61 0.61,-0.61 0.29,0 0.61,0.21 0.61,0.61 0,0.53 -0.54,0.82 -1.06,0.82 -0.7,0 -1.1,-0.5 -1.33,-1.13 z"
   inkscape:connector-curvature="0" />
<path
   id="path1808"
   style="fill:#000000;fill-opacity:1;stroke:#000000;stroke-width:0;stroke-opacity:1"
   d="m 162.89,658 v -0.06 -0.06 -0.03 -0.03 l 0.01,-0.04 v -0.03 l 0.01,-0.03 0.01,-0.03 0.01,-0.04 0.01,-0.03 0.02,-0.03 0.01,-0.03 0.02,-0.03 0.03,-0.03 0.02,-0.03 0.03,-0.02 0.04,-0.03 0.01,-0.01 0.02,-0.01 0.02,-0.02 0.02,-0.01 0.02,-0.01 0.02,-0.01 0.03,-0.01 0.02,-0.01 0.03,-0.01 0.03,-0.01 0.02,-0.01 0.03,-0.01 h 0.03 l 0.03,-0.01 0.04,-0.01 h 0.03 l 0.04,-0.01 h 0.03 l 0.04,-0.01 h 0.04 l 0.04,-0.01 h 0.04 0.05 0.04 0.05 l 0.05,-0.01 h 0.47 c 0.2,0 0.32,0 0.32,0.24 0,0.23 -0.13,0.23 -0.26,0.23 -0.6,0.01 -0.6,0.14 -0.6,0.37 v 2.14 c 0,0.88 -0.71,1.52 -2.2,1.52 -0.57,0 -1.78,-0.03 -1.78,-0.91 0,-0.44 0.35,-0.62 0.61,-0.62 0.31,0 0.63,0.2 0.63,0.62 0,0.3 -0.19,0.47 -0.22,0.49 0.28,0.06 0.6,0.07 0.72,0.07 0.75,0 1.1,-0.42 1.1,-1.17 v -0.34 -0.31 -0.94 c 0,-0.96 -0.92,-1.09 -1.17,-1.09 -0.51,0 -0.9,0.35 -0.9,0.79 0,1.07 1.57,1.21 2.07,1.24 v 0 0.31 c -0.71,-0.03 -3.24,-0.12 -3.24,-1.56 0,-0.96 1.23,-1.14 1.92,-1.14 0.8,0 1.27,0.41 1.49,0.83 z"
   inkscape:connector-curvature="0" />
<path
   id="path1810"
   style="fill:#000000;fill-opacity:1;stroke:#000000;stroke-width:0;stroke-opacity:1"
   d="m 170.65,663.27 v 0.02 l 0.01,0.02 0.01,0.03 v 0.02 l 0.01,0.02 v 0.02 l 0.01,0.02 0.01,0.02 v 0.01 l 0.01,0.02 v 0.01 l 0.01,0.02 v 0.01 l 0.01,0.01 0.01,0.01 v 0.01 l 0.01,0.01 0.01,0.01 v 0.01 l 0.01,0.01 h 0.01 v 0.01 l 0.01,0.01 h 0.01 l 0.01,0.01 h 0.01 l 0.01,0.01 v 0 h 0.01 l 0.01,0.01 h 0.02 0.01 c 0.09,0.02 0.41,0.02 0.63,0.02 1,0 1.45,-0.04 1.45,-0.81 0,-0.15 -0.04,-0.54 -0.08,-0.8 -0.01,-0.04 -0.03,-0.16 -0.03,-0.19 0,-0.06 0.03,-0.13 0.12,-0.13 0.11,0 0.13,0.08 0.15,0.23 l 0.27,1.73 c 0.01,0.04 0.02,0.14 0.02,0.17 0,0.11 -0.1,0.11 -0.27,0.11 h -5.53 c -0.24,0 -0.25,-0.01 -0.32,-0.2 l -0.6,-1.75 c -0.01,-0.02 -0.06,-0.16 -0.06,-0.18 0,-0.05 0.05,-0.11 0.12,-0.11 0.1,0 0.11,0.06 0.17,0.21 0.54,1.54 0.79,1.72 2.27,1.72 h 0.39 c 0.28,0 0.28,-0.04 0.28,-0.12 0,-0.06 -0.03,-0.18 -0.04,-0.21 l -1.34,-5.3 c -0.09,-0.37 -0.12,-0.48 -1.18,-0.48 -0.36,0 -0.42,0 -0.42,-0.19 0,-0.12 0.11,-0.12 0.17,-0.12 0.27,0 0.55,0.03 0.82,0.03 0.27,0 0.56,0.01 0.84,0.01 0.28,0 0.56,-0.01 0.83,-0.01 0.29,0 0.59,-0.03 0.87,-0.03 0.1,0 0.22,0 0.22,0.2 0,0.11 -0.08,0.11 -0.34,0.11 -0.25,0 -0.38,0 -0.64,0.02 -0.29,0.03 -0.37,0.06 -0.37,0.22 0,0.01 0,0.06 0.04,0.21 z"
   inkscape:connector-curvature="0" />
<path
   id="path1812"
   style="fill:#000000;fill-opacity:1;stroke:#000000;stroke-width:0;stroke-opacity:1"
   d="m 174.55,660.16 v 0.01 0.01 0.01 0.01 0 0.01 0.01 0.01 0 0.01 0.01 0 0.01 0 0.01 0 0.01 0 l -0.01,0.01 v 0.01 0.01 h -0.01 v 0.01 0.01 h -0.01 v 0.01 h -0.01 -0.01 v 0.01 h -0.01 -0.01 -0.01 -0.01 v 0 h -0.01 v 0.01 h -0.01 v 0 h -0.01 -0.01 v 0 h -0.01 -0.01 -0.01 v 0 h -0.01 -0.01 -0.01 -0.01 -0.01 c -0.44,-0.44 -1.08,-0.45 -1.37,-0.45 v -0.25 c 0.17,0 0.63,0 1.02,0.2 v -3.55 c 0,-0.23 0,-0.32 -0.7,-0.32 h -0.27 v -0.25 c 0.13,0.01 0.99,0.03 1.25,0.03 0.21,0 1.09,-0.02 1.25,-0.03 v 0.25 h -0.27 c -0.7,0 -0.7,0.09 -0.7,0.32 z"
   inkscape:connector-curvature="0" />
<path
   id="path1814"
   style="fill:#000000;fill-opacity:1;stroke:#000000;stroke-width:0;stroke-opacity:1"
   d="m 186.3,660.48 h 0.03 0.03 0.03 l 0.01,0.01 h 0.01 0.02 0.01 0.02 0.01 l 0.02,0.01 h 0.01 0.01 l 0.01,0.01 h 0.02 l 0.01,0.01 h 0.01 l 0.01,0.01 0.01,0.01 0.01,0.01 0.01,0.01 0.01,0.01 v 0 0.01 h 0.01 v 0.01 0.01 0 l 0.01,0.01 v 0.01 0 0.01 0.01 l 0.01,0.01 v 0.01 0 0.01 0.01 c 0,0.2 -0.19,0.2 -0.33,0.2 h -5.97 c -0.14,0 -0.33,0 -0.33,-0.2 0,-0.2 0.19,-0.2 0.34,-0.2 z"
   inkscape:connector-curvature="0" />
<path
   id="path1816"
   style="fill:#000000;fill-opacity:1;stroke:#000000;stroke-width:0;stroke-opacity:1"
   d="m 186.31,658.56 h 0.01 0.02 0.02 0.03 0.02 0.01 0.01 0.02 0.01 l 0.01,0.01 h 0.02 0.01 l 0.01,0.01 h 0.02 l 0.01,0.01 h 0.01 l 0.01,0.01 h 0.01 l 0.01,0.01 0.01,0.01 0.01,0.01 v 0 l 0.01,0.01 v 0.01 0 l 0.01,0.01 v 0 0.01 l 0.01,0.01 v 0 0.01 0.01 0 0.01 l 0.01,0.01 v 0.01 0.01 0.01 0.01 c 0,0.19 -0.19,0.19 -0.34,0.19 h -5.95 c -0.15,0 -0.34,0 -0.34,-0.19 0,-0.2 0.19,-0.2 0.33,-0.2 z"
   inkscape:connector-curvature="0" />
<path
   id="path1818"
   style="fill:#000000;fill-opacity:1;stroke:#000000;stroke-width:0;stroke-opacity:1"
   d="m 191.29,659.02 0.04,-0.02 0.05,-0.02 0.04,-0.02 0.04,-0.02 0.05,-0.01 0.04,-0.02 0.05,-0.01 0.04,-0.02 0.04,-0.01 0.05,-0.01 0.04,-0.01 0.04,-0.01 0.09,-0.02 0.08,-0.02 h 0.04 l 0.04,-0.01 h 0.04 l 0.03,-0.01 h 0.04 0.04 l 0.03,-0.01 h 0.04 0.03 0.03 0.03 0.03 0.03 0.03 0.02 0.03 v 0.35 c -0.88,0 -0.88,0.67 -0.88,1.11 0,0.45 0,1.12 0.88,1.12 0.87,0 0.87,-0.67 0.87,-1.12 0,-0.44 0,-1.11 -0.87,-1.11 v 0 -0.35 c 1.43,0 1.98,0.77 1.98,1.46 0,0.47 -0.25,0.8 -0.4,0.96 0.3,0.16 0.51,0.18 0.62,0.19 -0.02,-0.05 -0.04,-0.14 -0.04,-0.2 0,-0.25 0.17,-0.43 0.43,-0.43 0.26,0 0.43,0.19 0.43,0.43 0,0.23 -0.17,0.58 -0.63,0.58 -0.15,0 -0.62,-0.04 -1.06,-0.38 -0.18,0.12 -0.6,0.33 -1.33,0.33 -1.44,0 -1.99,-0.78 -1.99,-1.48 0,-0.4 0.2,-0.81 0.52,-1.04 -0.28,-0.35 -0.34,-0.67 -0.34,-0.88 0,-0.15 0.04,-0.64 0.44,-0.96 -0.13,-0.03 -0.86,-0.23 -0.86,-0.86 0,-0.51 0.55,-1.25 2.55,-1.25 v 0.36 c -1.2,0 -1.69,0.45 -1.69,0.91 0,0.6 0.63,0.6 0.77,0.6 v 0 h 1.16 c 0.31,0 1.44,0 1.44,-0.62 0,-0.36 -0.39,-0.89 -1.68,-0.89 v -0.36 c 1.76,0 2.54,0.58 2.54,1.28 0,0.3 -0.08,0.92 -0.75,1.26 -0.56,0.28 -1.16,0.28 -2.11,0.28 -0.26,0 -0.72,0 -0.77,0.01 -0.44,0.07 -0.55,0.45 -0.55,0.63 0,0.09 0.04,0.24 0.1,0.32 z"
   inkscape:connector-curvature="0" />
<path
   id="path1820"
   style="fill:#000000;fill-opacity:1;stroke:#000000;stroke-width:0;stroke-opacity:1"
   d="m 197.72,660.58 v 1.13 l -1.66,-0.08 v -0.47 c 0.62,0 0.69,0 0.69,-0.39 v -3.07 h -0.69 v -0.47 c 0.35,0.01 0.8,0.04 1.26,0.04 0.38,0 1.02,0 1.37,-0.04 v 0.47 h -0.86 v 1.74 c 0,0.7 0.25,1.91 1.24,1.91 -0.01,-0.01 -0.19,-0.17 -0.19,-0.46 0,-0.41 0.32,-0.61 0.61,-0.61 0.29,0 0.61,0.21 0.61,0.61 0,0.53 -0.54,0.82 -1.06,0.82 -0.69,0 -1.09,-0.5 -1.32,-1.13 z"
   inkscape:connector-curvature="0" />
<path
   id="path1822"
   style="fill:#000000;fill-opacity:1;stroke:#000000;stroke-width:0;stroke-opacity:1"
   d="m 204.14,658 v -0.06 -0.06 -0.03 l 0.01,-0.03 v -0.04 l 0.01,-0.03 v -0.03 l 0.01,-0.03 0.01,-0.04 0.01,-0.03 0.02,-0.03 0.02,-0.03 0.02,-0.03 0.02,-0.03 0.03,-0.03 0.02,-0.02 0.04,-0.03 0.01,-0.01 0.02,-0.01 0.02,-0.02 0.02,-0.01 0.02,-0.01 0.03,-0.01 0.02,-0.01 0.03,-0.01 0.02,-0.01 0.03,-0.01 0.03,-0.01 0.02,-0.01 h 0.03 l 0.04,-0.01 0.03,-0.01 h 0.03 l 0.04,-0.01 h 0.03 l 0.04,-0.01 h 0.04 l 0.04,-0.01 h 0.04 0.05 0.04 0.05 l 0.05,-0.01 h 0.48 c 0.2,0 0.32,0 0.32,0.24 0,0.23 -0.13,0.23 -0.26,0.23 -0.61,0.01 -0.61,0.14 -0.61,0.37 v 2.14 c 0,0.88 -0.71,1.52 -2.2,1.52 -0.56,0 -1.78,-0.03 -1.78,-0.91 0,-0.44 0.35,-0.62 0.62,-0.62 0.31,0 0.63,0.2 0.63,0.62 0,0.3 -0.19,0.47 -0.22,0.49 0.27,0.06 0.59,0.07 0.71,0.07 0.75,0 1.1,-0.42 1.1,-1.17 v -0.34 -0.31 -0.94 c 0,-0.96 -0.92,-1.09 -1.17,-1.09 -0.51,0 -0.9,0.35 -0.9,0.79 0,1.07 1.57,1.21 2.07,1.24 v 0 0.31 c -0.71,-0.03 -3.24,-0.12 -3.24,-1.56 0,-0.96 1.24,-1.14 1.92,-1.14 0.8,0 1.27,0.41 1.49,0.83 z"
   inkscape:connector-curvature="0" />
<path
   id="path1824"
   style="fill:#000000;fill-opacity:1;stroke:#000000;stroke-width:0;stroke-opacity:1"
   d="m 209.43,658.38 -0.04,-0.06 -0.04,-0.06 -0.04,-0.06 -0.03,-0.05 -0.04,-0.05 -0.04,-0.04 -0.04,-0.05 -0.03,-0.04 -0.04,-0.04 -0.04,-0.04 -0.04,-0.03 -0.03,-0.03 -0.04,-0.03 -0.04,-0.03 -0.04,-0.02 -0.03,-0.03 -0.04,-0.02 -0.04,-0.02 -0.04,-0.02 -0.04,-0.02 -0.03,-0.01 -0.04,-0.01 -0.04,-0.02 -0.04,-0.01 -0.04,-0.01 -0.04,-0.01 h -0.04 l -0.04,-0.01 -0.08,-0.01 -0.08,-0.01 c -0.12,-0.01 -0.21,-0.01 -0.21,-0.2 0,-0.06 0.05,-0.11 0.13,-0.11 0.27,0 0.58,0.04 0.86,0.04 0.32,0 0.67,-0.04 0.99,-0.04 0.06,0 0.19,0 0.19,0.19 0,0.11 -0.09,0.12 -0.16,0.12 -0.23,0.02 -0.46,0.1 -0.46,0.35 0,0.12 0.06,0.23 0.13,0.37 l 0.76,1.27 h 2.5 l -0.03,0.31 h -2.28 l 1.97,3.28 0.31,-3.28 0.03,-0.31 c 0.03,-0.21 0.17,-1.56 0.17,-1.66 0,-0.3 -0.52,-0.33 -0.72,-0.33 -0.14,0 -0.24,0 -0.24,-0.2 0,-0.11 0.12,-0.11 0.14,-0.11 0.41,0 0.84,0.04 1.24,0.04 0.25,0 0.88,-0.04 1.13,-0.04 0.06,0 0.18,0 0.18,0.2 0,0.11 -0.1,0.11 -0.23,0.11 -0.62,0 -0.62,0.07 -0.65,0.36 l -0.61,6.21 c -0.02,0.2 -0.02,0.24 -0.19,0.24 -0.16,0 -0.19,-0.07 -0.25,-0.17 z"
   inkscape:connector-curvature="0" />
<path
   id="path1826"
   style="fill:#000000;fill-opacity:1;stroke:#000000;stroke-width:0;stroke-opacity:1"
   d="m 223.42,662.82 v 0.03 0.03 0.04 0.01 0.02 l -0.01,0.01 v 0.02 0.02 0.01 0.01 l -0.01,0.02 v 0.01 l -0.01,0.01 v 0.02 l -0.01,0.01 v 0.01 l -0.01,0.01 -0.01,0.01 -0.01,0.01 -0.01,0.01 h -0.01 l -0.01,0.01 v 0 l -0.01,0.01 v 0 h -0.01 -0.01 v 0.01 h -0.01 -0.01 -0.01 -0.01 v 0 h -0.01 -0.01 -0.01 c -0.2,0 -0.2,-0.17 -0.2,-0.35 v -3.6 c 0,-1.49 -1.62,-1.81 -2.37,-1.81 -0.45,0 -1.08,0.09 -1.61,0.43 -0.77,0.49 -0.77,1.12 -0.77,1.39 v 3.59 c 0,0.18 0,0.35 -0.2,0.35 -0.2,0 -0.2,-0.17 -0.2,-0.35 v -3.64 c 0,-1.51 1.53,-2.16 2.78,-2.16 1.29,0 2.77,0.69 2.77,2.15 z"
   inkscape:connector-curvature="0" />
<path
   id="path1828"
   style="fill:#000000;fill-opacity:1;stroke:#000000;stroke-width:0;stroke-opacity:1"
   d="m 227.51,659.02 0.04,-0.02 0.04,-0.02 0.05,-0.02 0.04,-0.02 0.05,-0.01 0.04,-0.02 0.04,-0.01 0.05,-0.02 0.04,-0.01 0.04,-0.01 0.05,-0.01 0.04,-0.01 0.08,-0.02 0.09,-0.02 h 0.04 l 0.03,-0.01 h 0.04 l 0.04,-0.01 h 0.04 0.03 l 0.04,-0.01 h 0.03 0.04 0.03 0.03 0.03 0.03 0.03 0.02 0.03 v 0.35 c -0.88,0 -0.88,0.67 -0.88,1.11 0,0.45 0,1.12 0.88,1.12 0.87,0 0.87,-0.67 0.87,-1.12 0,-0.44 0,-1.11 -0.87,-1.11 v 0 -0.35 c 1.43,0 1.98,0.77 1.98,1.46 0,0.47 -0.25,0.8 -0.4,0.96 0.3,0.16 0.51,0.18 0.62,0.19 -0.02,-0.05 -0.04,-0.14 -0.04,-0.2 0,-0.25 0.17,-0.43 0.43,-0.43 0.26,0 0.43,0.19 0.43,0.43 0,0.23 -0.17,0.58 -0.63,0.58 -0.15,0 -0.62,-0.04 -1.06,-0.38 -0.18,0.12 -0.6,0.33 -1.33,0.33 -1.44,0 -1.99,-0.78 -1.99,-1.48 0,-0.4 0.2,-0.81 0.52,-1.04 -0.28,-0.35 -0.34,-0.67 -0.34,-0.88 0,-0.15 0.04,-0.64 0.44,-0.96 -0.13,-0.03 -0.86,-0.23 -0.86,-0.86 0,-0.51 0.55,-1.25 2.54,-1.25 v 0.36 c -1.19,0 -1.68,0.45 -1.68,0.91 0,0.6 0.63,0.6 0.77,0.6 v 0 h 1.16 c 0.31,0 1.44,0 1.44,-0.62 0,-0.36 -0.39,-0.89 -1.69,-0.89 v -0.36 c 1.77,0 2.55,0.58 2.55,1.28 0,0.3 -0.08,0.92 -0.75,1.26 -0.56,0.28 -1.16,0.28 -2.11,0.28 -0.26,0 -0.72,0 -0.77,0.01 -0.44,0.07 -0.55,0.45 -0.55,0.63 0,0.09 0.04,0.24 0.1,0.32 z"
   inkscape:connector-curvature="0" />
<path
   id="path1830"
   style="fill:#000000;fill-opacity:1;stroke:#000000;stroke-width:0;stroke-opacity:1"
   d="m 233.93,660.58 v 1.13 l -1.65,-0.08 v -0.47 c 0.62,0 0.69,0 0.69,-0.39 v -3.07 h -0.69 v -0.47 c 0.35,0.01 0.8,0.04 1.26,0.04 0.37,0 1.01,0 1.37,-0.04 v 0.47 h -0.87 v 1.74 c 0,0.7 0.25,1.91 1.25,1.91 -0.01,-0.01 -0.19,-0.17 -0.19,-0.46 0,-0.41 0.32,-0.61 0.61,-0.61 0.29,0 0.61,0.21 0.61,0.61 0,0.53 -0.54,0.82 -1.06,0.82 -0.7,0 -1.1,-0.5 -1.33,-1.13 z"
   inkscape:connector-curvature="0" />
<path
   id="path1832"
   style="fill:#000000;fill-opacity:1;stroke:#000000;stroke-width:0;stroke-opacity:1"
   d="m 240.36,658 v -0.06 -0.06 -0.03 -0.03 l 0.01,-0.04 v -0.03 l 0.01,-0.03 0.01,-0.03 0.01,-0.04 0.01,-0.03 0.02,-0.03 0.01,-0.03 0.02,-0.03 0.03,-0.03 0.02,-0.03 0.03,-0.02 0.04,-0.03 0.01,-0.01 0.02,-0.01 0.02,-0.02 0.02,-0.01 0.02,-0.01 0.02,-0.01 0.03,-0.01 0.02,-0.01 0.03,-0.01 0.03,-0.01 0.02,-0.01 0.03,-0.01 h 0.03 l 0.03,-0.01 0.04,-0.01 h 0.03 l 0.04,-0.01 h 0.03 l 0.04,-0.01 h 0.04 l 0.04,-0.01 h 0.04 0.05 0.04 0.05 l 0.05,-0.01 h 0.47 c 0.2,0 0.32,0 0.32,0.24 0,0.23 -0.13,0.23 -0.26,0.23 -0.6,0.01 -0.6,0.14 -0.6,0.37 v 2.14 c 0,0.88 -0.71,1.52 -2.2,1.52 -0.57,0 -1.78,-0.03 -1.78,-0.91 0,-0.44 0.35,-0.62 0.61,-0.62 0.31,0 0.63,0.2 0.63,0.62 0,0.3 -0.19,0.47 -0.22,0.49 0.28,0.06 0.6,0.07 0.72,0.07 0.75,0 1.1,-0.42 1.1,-1.17 v -0.34 -0.31 -0.94 c 0,-0.96 -0.92,-1.09 -1.17,-1.09 -0.51,0 -0.9,0.35 -0.9,0.79 0,1.07 1.57,1.21 2.07,1.24 v 0 0.31 c -0.71,-0.03 -3.24,-0.12 -3.24,-1.56 0,-0.96 1.23,-1.14 1.92,-1.14 0.8,0 1.27,0.41 1.49,0.83 z"
   inkscape:connector-curvature="0" />
<path
   id="path1834"
   style="fill:#000000;fill-opacity:1;stroke:#000000;stroke-width:0;stroke-opacity:1"
   d="m 245.45,658.01 -0.01,-0.04 v -0.03 l -0.01,-0.03 -0.01,-0.03 -0.01,-0.03 -0.01,-0.03 -0.01,-0.02 -0.01,-0.03 -0.01,-0.02 -0.01,-0.02 -0.02,-0.02 -0.01,-0.02 -0.02,-0.02 -0.01,-0.01 -0.02,-0.02 -0.02,-0.01 -0.02,-0.01 -0.03,-0.01 -0.03,-0.01 -0.03,-0.01 -0.03,-0.01 h -0.02 l -0.01,-0.01 h -0.02 -0.02 l -0.02,-0.01 h -0.02 -0.03 -0.02 l -0.02,-0.01 h -0.03 -0.02 -0.03 -0.02 -0.03 -0.03 -0.03 l -0.03,-0.01 h -0.04 -0.03 -0.03 -0.04 -0.03 c -0.17,0 -0.27,0 -0.27,-0.2 0,-0.11 0.09,-0.11 0.27,-0.11 h 3.56 c 1.57,0 2.75,1.18 2.75,2.15 0,0.72 -0.58,1.29 -1.55,1.4 1.04,0.19 2.09,0.93 2.09,1.87 0,0.73 -0.66,1.37 -1.86,1.37 l -0.14,-0.31 c 0.88,0 1.09,-0.58 1.09,-1.02 0,-0.87 -0.86,-1.82 -2.08,-1.82 h -1.45 l -0.06,-0.22 h 1.88 c 0.96,0 1.15,-0.73 1.15,-1.16 0,-0.98 -0.89,-1.95 -2.06,-1.95 h -1.36 c -0.14,0 -0.16,0 -0.22,0.01 -0.1,0.01 -0.13,0.02 -0.13,0.1 0,0.03 0,0.05 0.05,0.23 l 0.69,2.77 0.06,0.22 0.62,2.46 c 0.09,0.35 0.11,0.38 0.54,0.38 h 1.28 l 0.14,0.31 h -3.35 c -0.19,0 -0.29,0 -0.29,-0.2 0,-0.11 0.09,-0.11 0.28,-0.11 0.02,0 0.21,0 0.38,-0.02 0.18,-0.02 0.27,-0.03 0.27,-0.16 0,-0.04 -0.01,-0.07 -0.04,-0.19 z"
   inkscape:connector-curvature="0" />
</g>    <g
       id="g2077"
       transform="matrix(1.1112503,0,0,-1.1112503,127.76036,809.95144)"
       xml:space="preserve"
       stroke-miterlimit="10.433"
       font-style="normal"
       font-variant="normal"
       font-weight="normal"
       font-stretch="normal"
       font-size-adjust="none"
       letter-spacing="normal"
       word-spacing="normal"
       ns0:version="0.8.1"
       ns0:texconverter="pdflatex"
       ns0:pdfconverter="pstoedit"
       ns0:text="$x$"
       ns0:preamble="C:\\Users\\Shuvomoy Das Gupta\\AppData\\Roaming\\inkscape\\extensions\\default_packages.tex"
       ns0:scale="1.40000007938"
       ns0:alignment="middle center"
       ns0:jacobian_sqrt="0.493889"
       style="font-style:normal;font-variant:normal;font-weight:normal;font-stretch:normal;letter-spacing:normal;word-spacing:normal;text-anchor:start;fill:none;fill-opacity:1;fill-rule:evenodd;stroke:#000000;stroke-linecap:butt;stroke-linejoin:miter;stroke-miterlimit:10.43299961;stroke-dasharray:none;stroke-dashoffset:0;stroke-opacity:1">

<path
   inkscape:connector-curvature="0"
   d="m -47.848939,607.0245 0.015,0.045 0.015,0.045 v 0.045 l 0.015,0.06 0.015,0.06 0.03,0.06 0.015,0.06 0.015,0.075 0.03,0.06 0.03,0.075 0.03,0.075 0.03,0.075 0.03,0.075 0.03,0.075 0.045,0.075 0.045,0.075 0.045,0.075 0.045,0.06 0.045,0.075 0.06,0.06 0.045,0.075 0.06,0.06 0.075,0.06 0.06,0.045 0.075,0.045 0.06,0.045 0.045,0.015 0.045,0.03 0.03,0.015 0.045,0.015 0.045,0.015 h 0.045 l 0.03,0.015 0.045,0.015 h 0.045 0.06 l 0.045,0.015 h 0.045 c 0.075,0 0.435,0 0.75,-0.195 -0.42,-0.075 -0.72,-0.45 -0.72,-0.81 0,-0.24 0.165,-0.525 0.57,-0.525 0.33,0 0.81,0.27 0.81,0.87 0,0.78 -0.885,0.99 -1.395,0.99 -0.87,0 -1.395,-0.795 -1.575,-1.14 -0.375,0.99 -1.17,1.14 -1.605,1.14 -1.56,0 -2.415,-1.935 -2.415,-2.295 0,-0.15 0.15,-0.15 0.18,-0.15 0.12,0 0.165,0.03 0.195,0.165 0.51,1.575 1.5,1.95 2.01,1.95 0.285,0 0.795,-0.135 0.795,-1.005 0,-0.465 -0.255,-1.455 -0.795,-3.54 -0.24,-0.93 -0.765,-1.56 -1.425,-1.56 -0.09,0 -0.435,0 -0.75,0.195 0.375,0.075 0.705,0.39 0.705,0.81 0,0.405 -0.33,0.525 -0.555,0.525 -0.45,0 -0.825,-0.39 -0.825,-0.87 0,-0.69 0.75,-0.975 1.41,-0.975 0.99,0 1.53,1.035 1.575,1.125 0.165,-0.555 0.705,-1.125 1.605,-1.125 1.545,0 2.4,1.92 2.4,2.295 0,0.15 -0.135,0.15 -0.18,0.15 -0.135,0 -0.165,-0.06 -0.195,-0.165 -0.495,-1.605 -1.515,-1.965 -1.995,-1.965 -0.585,0 -0.825,0.48 -0.825,0.99 0,0.33 0.09,0.66 0.255,1.305 z"
   style="fill:#000000;fill-opacity:1;stroke:#000000;stroke-width:0;stroke-opacity:1"
   id="path1944-0" /><g
   ns0:jacobian_sqrt="0.493889"
   ns0:alignment="middle center"
   ns0:scale="1.40000007938"
   ns0:preamble="C:\\Users\\Shuvomoy Das Gupta\\AppData\\Roaming\\inkscape\\extensions\\default_packages.tex"
   ns0:text="$T_1(x)$"
   ns0:pdfconverter="pstoedit"
   ns0:texconverter="pdflatex"
   ns0:version="0.8.1"
   word-spacing="normal"
   letter-spacing="normal"
   font-size-adjust="none"
   font-stretch="normal"
   font-weight="normal"
   font-variant="normal"
   font-style="normal"
   stroke-miterlimit="10.433"
   xml:space="preserve"
   transform="matrix(0.493889,0,0,-0.493889,25.878982,474.32598)"
   id="content"
   style="font-style:normal;font-variant:normal;font-weight:normal;font-stretch:normal;letter-spacing:normal;word-spacing:normal;text-anchor:start;fill:none;fill-opacity:1;fill-rule:evenodd;stroke:#000000;stroke-linecap:butt;stroke-linejoin:miter;stroke-miterlimit:10.43299961;stroke-dasharray:none;stroke-dashoffset:0;stroke-opacity:1">





</g><flowRoot
   style="font-style:normal;font-weight:normal;font-size:13.33333302px;line-height:25px;font-family:sans-serif;letter-spacing:0px;word-spacing:0px;fill:#000000;fill-opacity:1;stroke:none;stroke-width:1px;stroke-linecap:butt;stroke-linejoin:miter;stroke-opacity:1"
   id="flowRoot2269"
   xml:space="preserve"><flowRegion
     id="flowRegion2271"><rect
       y="339.30536"
       x="181.25"
       height="34.642857"
       width="82.14286"
       id="rect2273" /></flowRegion><flowPara
     id="flowPara2275" /></flowRoot><g
   ns0:jacobian_sqrt="0.352778"
   inkscapeversion="0.92.3"
   ns0:alignment="middle center"
   ns0:scale="1.0"
   ns0:preamble="C:\\Users\\Shuvomoy Das Gupta\\AppData\\Roaming\\inkscape\\extensions\\default_packages.tex"
   ns0:text="$T_1(x)$"
   ns0:pdfconverter="pstoedit"
   ns0:texconverter="xelatex"
   ns0:version="0.8.1"
   word-spacing="normal"
   letter-spacing="normal"
   font-size-adjust="none"
   font-stretch="normal"
   font-weight="normal"
   font-variant="normal"
   font-style="normal"
   stroke-miterlimit="10.433"
   xml:space="preserve"
   transform="matrix(1.058334,0,0,1.058334,-297.33904,-15.900287)"
   id="g1096"
   style="font-style:normal;font-variant:normal;font-weight:normal;font-stretch:normal;letter-spacing:normal;word-spacing:normal;text-anchor:start;fill:none;fill-opacity:1;fill-rule:evenodd;stroke:#000000;stroke-linecap:butt;stroke-linejoin:miter;stroke-miterlimit:10.43299961;stroke-dasharray:none;stroke-dashoffset:0;stroke-opacity:1">
<path
   id="path1086"
   d="m 153.8739,665.62015 0.01,0.02 v 0.02 l 0.01,0.03 0.01,0.02 v 0.02 l 0.01,0.02 v 0.02 l 0.01,0.02 v 0.01 l 0.01,0.02 0.01,0.01 v 0.02 l 0.01,0.01 v 0.01 l 0.01,0.01 0.01,0.01 v 0.01 l 0.01,0.01 0.01,0.01 v 0.01 h 0.01 l 0.01,0.01 v 0.01 h 0.01 l 0.01,0.01 h 0.01 l 0.01,0.01 h 0.01 0.01 l 0.01,0.01 h 0.01 0.01 c 0.09,0.02 0.42,0.02 0.63,0.02 1.01,0 1.45,-0.04 1.45,-0.81 0,-0.15 -0.04,-0.54 -0.08,-0.8 -0.01,-0.04 -0.03,-0.16 -0.03,-0.19 0,-0.06 0.03,-0.13 0.12,-0.13 0.11,0 0.13,0.08 0.15,0.23 l 0.27,1.73 c 0.01,0.04 0.02,0.14 0.02,0.17 0,0.11 -0.1,0.11 -0.27,0.11 h -5.53 c -0.24,0 -0.25,-0.01 -0.32,-0.2 l -0.6,-1.75 c -0.01,-0.02 -0.06,-0.16 -0.06,-0.18 0,-0.05 0.05,-0.11 0.12,-0.11 0.1,0 0.11,0.06 0.17,0.21 0.54,1.54 0.8,1.72 2.27,1.72 h 0.39 c 0.28,0 0.28,-0.04 0.28,-0.12 0,-0.06 -0.03,-0.18 -0.04,-0.21 l -1.33,-5.3 c -0.09,-0.37 -0.12,-0.48 -1.19,-0.48 -0.36,0 -0.42,0 -0.42,-0.19 0,-0.12 0.11,-0.12 0.17,-0.12 0.27,0 0.55,0.03 0.82,0.03 0.28,0 0.57,0.01 0.85,0.01 0.28,0 0.55,-0.01 0.82,-0.01 0.29,0 0.59,-0.03 0.87,-0.03 0.1,0 0.22,0 0.22,0.2 0,0.11 -0.08,0.11 -0.34,0.11 -0.25,0 -0.38,0 -0.64,0.02 -0.29,0.03 -0.37,0.06 -0.37,0.22 0,0.01 0,0.06 0.04,0.21 z"
   inkscape:connector-curvature="0"
   style="fill:#000000;stroke-width:0" />
<path
   id="path1088"
   d="m 157.7839,662.51015 v 0.01 0.01 0.01 0.01 0 0.01 0.01 0.01 h -0.01 v 0.01 0.01 0 0.01 0 0.01 0 0.01 0 0.01 l -0.01,0.01 v 0.01 0 l -0.01,0.01 v 0.01 h -0.01 v 0.01 h -0.01 v 0 l -0.01,0.01 h -0.01 -0.01 -0.01 v 0 h -0.01 v 0 l -0.01,0.01 h -0.01 v 0 h -0.01 v 0 h -0.01 -0.01 -0.01 v 0 h -0.01 -0.01 -0.01 -0.01 v 0 h -0.01 c -0.45,-0.44 -1.09,-0.45 -1.37,-0.45 v -0.25 c 0.16,0 0.63,0 1.01,0.2 v -3.55 c 0,-0.23 0,-0.32 -0.7,-0.32 h -0.26 v -0.25 c 0.12,0.01 0.98,0.03 1.24,0.03 0.22,0 1.1,-0.02 1.25,-0.03 v 0.25 h -0.26 c -0.7,0 -0.7,0.09 -0.7,0.32 z"
   inkscape:connector-curvature="0"
   style="fill:#000000;stroke-width:0" />
<path
   id="path1090"
   d="m 163.2039,657.20015 v 0.01 0 0 0.01 0 0 0.01 0 0 0.01 h -0.01 v 0.01 0 l -0.01,0.01 v 0 l -0.01,0.01 v 0.01 h -0.01 v 0.01 0 l -0.01,0.01 v 0 0 l -0.01,0.01 v 0 l -0.01,0.01 v 0 l -0.01,0.01 v 0 l -0.01,0.01 v 0 l -0.01,0.01 v 0.01 h -0.01 l -0.01,0.01 v 0.01 h -0.01 l -0.01,0.01 v 0.01 h -0.01 l -0.01,0.01 -0.01,0.01 c -1.24,1.25 -1.56,3.13 -1.56,4.65 0,1.73 0.38,3.45 1.61,4.7 0.12,0.12 0.12,0.14 0.12,0.17 0,0.07 -0.04,0.09 -0.09,0.09 -0.11,0 -1,-0.67 -1.59,-1.93 -0.51,-1.09 -0.63,-2.2 -0.63,-3.03 0,-0.78 0.11,-1.98 0.66,-3.1 0.6,-1.22 1.45,-1.87 1.56,-1.87 0.05,0 0.09,0.03 0.09,0.1 z"
   inkscape:connector-curvature="0"
   style="fill:#000000;stroke-width:0" />
<path
   id="path1092"
   d="m 167.1139,662.58015 0.01,0.03 v 0.03 l 0.01,0.03 0.01,0.04 0.01,0.04 0.01,0.04 0.02,0.04 0.01,0.05 0.02,0.04 0.01,0.05 0.02,0.05 0.02,0.05 0.03,0.05 0.02,0.05 0.03,0.05 0.02,0.05 0.03,0.05 0.03,0.04 0.04,0.05 0.03,0.04 0.04,0.05 0.04,0.04 0.04,0.04 0.05,0.03 0.04,0.03 0.05,0.03 0.03,0.01 0.02,0.02 0.03,0.01 0.03,0.01 0.02,0.01 h 0.03 l 0.03,0.01 0.03,0.01 h 0.03 0.03 l 0.03,0.01 h 0.04 c 0.05,0 0.29,0 0.5,-0.13 -0.29,-0.05 -0.48,-0.3 -0.48,-0.54 0,-0.16 0.11,-0.35 0.38,-0.35 0.21,0 0.53,0.18 0.53,0.58 0,0.52 -0.59,0.66 -0.92,0.66 -0.58,0 -0.93,-0.53 -1.05,-0.76 -0.25,0.66 -0.79,0.76 -1.08,0.76 -1.04,0 -1.6,-1.29 -1.6,-1.53 0,-0.1 0.1,-0.1 0.12,-0.1 0.08,0 0.11,0.02 0.13,0.11 0.34,1.05 0.99,1.3 1.33,1.3 0.19,0 0.54,-0.09 0.54,-0.67 0,-0.31 -0.17,-0.97 -0.54,-2.36 -0.16,-0.62 -0.51,-1.04 -0.94,-1.04 -0.07,0 -0.3,0 -0.5,0.13 0.25,0.05 0.47,0.26 0.47,0.54 0,0.27 -0.22,0.35 -0.37,0.35 -0.3,0 -0.55,-0.26 -0.55,-0.58 0,-0.46 0.5,-0.65 0.93,-0.65 0.66,0 1.02,0.69 1.05,0.75 0.12,-0.37 0.48,-0.75 1.08,-0.75 1.03,0 1.59,1.28 1.59,1.53 0,0.1 -0.09,0.1 -0.12,0.1 -0.08,0 -0.1,-0.04 -0.13,-0.11 -0.32,-1.07 -1,-1.31 -1.32,-1.31 -0.39,0 -0.55,0.32 -0.55,0.66 0,0.22 0.06,0.44 0.17,0.87 z"
   inkscape:connector-curvature="0"
   style="fill:#000000;stroke-width:0" />
<path
   id="path1094"
   d="m 172.3539,662.07015 v 0.07 0.08 0.08 0.08 l -0.01,0.17 -0.01,0.17 -0.02,0.18 -0.02,0.19 -0.03,0.2 -0.03,0.2 -0.04,0.2 -0.04,0.21 -0.06,0.21 -0.06,0.21 -0.07,0.21 -0.08,0.21 -0.04,0.11 -0.05,0.11 -0.04,0.1 -0.05,0.11 c -0.6,1.22 -1.46,1.86 -1.56,1.86 -0.06,0 -0.1,-0.03 -0.1,-0.09 0,-0.03 0,-0.05 0.19,-0.23 0.98,-0.99 1.55,-2.57 1.55,-4.64 0,-1.7 -0.37,-3.45 -1.61,-4.7 -0.13,-0.12 -0.13,-0.14 -0.13,-0.17 0,-0.06 0.04,-0.1 0.1,-0.1 0.1,0 1,0.68 1.59,1.94 0.5,1.09 0.62,2.19 0.62,3.03 z"
   inkscape:connector-curvature="0"
   style="fill:#000000;stroke-width:0" />
</g><g
   id="g1266"
   transform="matrix(1.058334,0,0,1.058334,-106.04751,-14.518913)"
   xml:space="preserve"
   stroke-miterlimit="10.433"
   font-style="normal"
   font-variant="normal"
   font-weight="normal"
   font-stretch="normal"
   font-size-adjust="none"
   letter-spacing="normal"
   word-spacing="normal"
   ns0:version="0.8.1"
   ns0:texconverter="xelatex"
   ns0:pdfconverter="pstoedit"
   ns0:text="$T_2(x)$"
   ns0:preamble="C:\\Users\\Shuvomoy Das Gupta\\AppData\\Roaming\\inkscape\\extensions\\default_packages.tex"
   ns0:scale="3.0"
   ns0:alignment="middle center"
   inkscapeversion="0.92.3"
   ns0:jacobian_sqrt="1.058334"
   style="font-style:normal;font-variant:normal;font-weight:normal;font-stretch:normal;letter-spacing:normal;word-spacing:normal;text-anchor:start;fill:none;fill-opacity:1;fill-rule:evenodd;stroke:#000000;stroke-linecap:butt;stroke-linejoin:miter;stroke-miterlimit:10.43299961;stroke-dasharray:none;stroke-dashoffset:0;stroke-opacity:1">
<path
   d="m 152.97,663.27 0.01,0.02 v 0.02 l 0.01,0.03 0.01,0.02 v 0.02 l 0.01,0.02 v 0.02 l 0.01,0.02 v 0.01 l 0.01,0.02 0.01,0.01 v 0.02 l 0.01,0.01 v 0.01 l 0.01,0.01 0.01,0.01 v 0.01 l 0.01,0.01 0.01,0.01 v 0.01 h 0.01 l 0.01,0.01 v 0.01 h 0.01 l 0.01,0.01 h 0.01 l 0.01,0.01 h 0.01 0.01 l 0.01,0.01 h 0.01 0.01 c 0.09,0.02 0.42,0.02 0.63,0.02 1.01,0 1.45,-0.04 1.45,-0.81 0,-0.15 -0.04,-0.54 -0.08,-0.8 -0.01,-0.04 -0.03,-0.16 -0.03,-0.19 0,-0.06 0.03,-0.13 0.12,-0.13 0.11,0 0.13,0.08 0.15,0.23 l 0.27,1.73 c 0.01,0.04 0.02,0.14 0.02,0.17 0,0.11 -0.1,0.11 -0.27,0.11 h -5.53 c -0.24,0 -0.25,-0.01 -0.32,-0.2 l -0.6,-1.75 c -0.01,-0.02 -0.06,-0.16 -0.06,-0.18 0,-0.05 0.05,-0.11 0.12,-0.11 0.1,0 0.11,0.06 0.17,0.21 0.54,1.54 0.8,1.72 2.27,1.72 h 0.39 c 0.28,0 0.28,-0.04 0.28,-0.12 0,-0.06 -0.03,-0.18 -0.04,-0.21 l -1.33,-5.3 c -0.09,-0.37 -0.12,-0.48 -1.19,-0.48 -0.36,0 -0.42,0 -0.42,-0.19 0,-0.12 0.11,-0.12 0.17,-0.12 0.27,0 0.55,0.03 0.82,0.03 0.28,0 0.57,0.01 0.85,0.01 0.28,0 0.55,-0.01 0.82,-0.01 0.29,0 0.59,-0.03 0.87,-0.03 0.1,0 0.22,0 0.22,0.2 0,0.11 -0.08,0.11 -0.34,0.11 -0.25,0 -0.38,0 -0.64,0.02 -0.29,0.03 -0.37,0.06 -0.37,0.22 0,0.01 0,0.06 0.04,0.21 z"
   style="fill:#000000;fill-opacity:1;stroke:#000000;stroke-width:0;stroke-opacity:1"
   id="path1256"
   inkscape:connector-curvature="0" />
<path
   d="m 158.07,657.01 h -0.24 c -0.02,-0.16 -0.09,-0.57 -0.18,-0.64 -0.06,-0.04 -0.6,-0.04 -0.7,-0.04 h -1.28 c 0.73,0.65 0.98,0.84 1.4,1.17 0.51,0.41 1,0.84 1,1.5 0,0.84 -0.75,1.36 -1.64,1.36 -0.87,0 -1.45,-0.61 -1.45,-1.25 0,-0.35 0.29,-0.39 0.37,-0.39 0.16,0 0.37,0.12 0.37,0.37 0,0.13 -0.05,0.37 -0.42,0.37 0.22,0.5 0.69,0.65 1.02,0.65 0.7,0 1.07,-0.54 1.07,-1.11 0,-0.6 -0.44,-1.08 -0.66,-1.33 l -1.69,-1.66 c -0.06,-0.06 -0.06,-0.07 -0.06,-0.27 h 2.87 z"
   style="fill:#000000;fill-opacity:1;stroke:#000000;stroke-width:0;stroke-opacity:1"
   id="path1258"
   inkscape:connector-curvature="0" />
<path
   d="m 162.3,654.85 v 0.01 0 0 0.01 0 0 0.01 0 0 0.01 h -0.01 v 0.01 0 l -0.01,0.01 v 0 l -0.01,0.01 v 0.01 h -0.01 v 0.01 0 l -0.01,0.01 v 0 0 l -0.01,0.01 v 0 l -0.01,0.01 v 0 l -0.01,0.01 v 0 l -0.01,0.01 v 0 L 162.2,655 v 0.01 h -0.01 l -0.01,0.01 v 0.01 h -0.01 l -0.01,0.01 v 0.01 h -0.01 l -0.01,0.01 -0.01,0.01 c -1.24,1.25 -1.56,3.13 -1.56,4.65 0,1.73 0.38,3.45 1.61,4.7 0.12,0.12 0.12,0.14 0.12,0.17 0,0.07 -0.04,0.09 -0.09,0.09 -0.11,0 -1,-0.67 -1.59,-1.93 -0.51,-1.09 -0.63,-2.2 -0.63,-3.03 0,-0.78 0.11,-1.98 0.66,-3.1 0.6,-1.22 1.45,-1.87 1.56,-1.87 0.05,0 0.09,0.03 0.09,0.1 z"
   style="fill:#000000;fill-opacity:1;stroke:#000000;stroke-width:0;stroke-opacity:1"
   id="path1260"
   inkscape:connector-curvature="0" />
<path
   d="m 166.21,660.23 0.01,0.03 v 0.03 l 0.01,0.03 0.01,0.04 0.01,0.04 0.01,0.04 0.02,0.04 0.01,0.05 0.02,0.04 0.01,0.05 0.02,0.05 0.02,0.05 0.03,0.05 0.02,0.05 0.03,0.05 0.02,0.05 0.03,0.05 0.03,0.04 0.04,0.05 0.03,0.04 0.04,0.05 0.04,0.04 0.04,0.04 0.05,0.03 0.04,0.03 0.05,0.03 0.03,0.01 0.02,0.02 0.03,0.01 0.03,0.01 0.02,0.01 h 0.03 l 0.03,0.01 0.03,0.01 h 0.03 0.03 l 0.03,0.01 h 0.04 c 0.05,0 0.29,0 0.5,-0.13 -0.29,-0.05 -0.48,-0.3 -0.48,-0.54 0,-0.16 0.11,-0.35 0.38,-0.35 0.21,0 0.53,0.18 0.53,0.58 0,0.52 -0.59,0.66 -0.92,0.66 -0.58,0 -0.93,-0.53 -1.05,-0.76 -0.25,0.66 -0.79,0.76 -1.08,0.76 -1.04,0 -1.6,-1.29 -1.6,-1.53 0,-0.1 0.1,-0.1 0.12,-0.1 0.08,0 0.11,0.02 0.13,0.11 0.34,1.05 0.99,1.3 1.33,1.3 0.19,0 0.54,-0.09 0.54,-0.67 0,-0.31 -0.17,-0.97 -0.54,-2.36 -0.16,-0.62 -0.51,-1.04 -0.94,-1.04 -0.07,0 -0.3,0 -0.5,0.13 0.25,0.05 0.47,0.26 0.47,0.54 0,0.27 -0.22,0.35 -0.37,0.35 -0.3,0 -0.55,-0.26 -0.55,-0.58 0,-0.46 0.5,-0.65 0.93,-0.65 0.66,0 1.02,0.69 1.05,0.75 0.12,-0.37 0.48,-0.75 1.08,-0.75 1.03,0 1.59,1.28 1.59,1.53 0,0.1 -0.09,0.1 -0.12,0.1 -0.08,0 -0.1,-0.04 -0.13,-0.11 -0.32,-1.07 -1,-1.31 -1.32,-1.31 -0.39,0 -0.55,0.32 -0.55,0.66 0,0.22 0.06,0.44 0.17,0.87 z"
   style="fill:#000000;fill-opacity:1;stroke:#000000;stroke-width:0;stroke-opacity:1"
   id="path1262"
   inkscape:connector-curvature="0" />
<path
   d="m 171.45,659.72 v 0.07 0.08 0.08 0.08 l -0.01,0.17 -0.01,0.17 -0.02,0.18 -0.02,0.19 -0.03,0.2 -0.03,0.2 -0.04,0.2 -0.04,0.21 -0.06,0.21 -0.06,0.21 -0.07,0.21 -0.08,0.21 -0.04,0.11 -0.05,0.11 -0.04,0.1 -0.05,0.11 c -0.6,1.22 -1.46,1.86 -1.56,1.86 -0.06,0 -0.1,-0.03 -0.1,-0.09 0,-0.03 0,-0.05 0.19,-0.23 0.98,-0.99 1.55,-2.57 1.55,-4.64 0,-1.7 -0.37,-3.45 -1.61,-4.7 -0.13,-0.12 -0.13,-0.14 -0.13,-0.17 0,-0.06 0.04,-0.1 0.1,-0.1 0.1,0 1,0.68 1.59,1.94 0.5,1.09 0.62,2.19 0.62,3.03 z"
   style="fill:#000000;fill-opacity:1;stroke:#000000;stroke-width:0;stroke-opacity:1"
   id="path1264"
   inkscape:connector-curvature="0" />
</g><path
   inkscape:connector-curvature="0"
   d="m 140.86069,607.75466 0.015,0.045 0.015,0.045 v 0.045 l 0.015,0.06 0.015,0.06 0.03,0.06 0.015,0.06 0.015,0.075 0.03,0.06 0.03,0.075 0.03,0.075 0.03,0.075 0.03,0.075 0.03,0.075 0.045,0.075 0.045,0.075 0.045,0.075 0.045,0.06 0.045,0.075 0.06,0.06 0.045,0.075 0.06,0.06 0.075,0.06 0.06,0.045 0.075,0.045 0.06,0.045 0.045,0.015 0.045,0.03 0.03,0.015 0.045,0.015 0.045,0.015 h 0.045 l 0.03,0.015 0.045,0.015 h 0.045 0.06 l 0.045,0.015 h 0.045 c 0.075,0 0.435,0 0.75,-0.195 -0.42,-0.075 -0.72,-0.45 -0.72,-0.81 0,-0.24 0.165,-0.525 0.57,-0.525 0.33,0 0.81,0.27 0.81,0.87 0,0.78 -0.885,0.99 -1.395,0.99 -0.87,0 -1.395,-0.795 -1.575,-1.14 -0.375,0.99 -1.17,1.14 -1.605,1.14 -1.56,0 -2.415,-1.935 -2.415,-2.295 0,-0.15 0.15,-0.15 0.18,-0.15 0.12,0 0.165,0.03 0.195,0.165 0.51,1.575 1.5,1.95 2.01,1.95 0.285,0 0.795,-0.135 0.795,-1.005 0,-0.465 -0.255,-1.455 -0.795,-3.54 -0.24,-0.93 -0.765,-1.56 -1.425,-1.56 -0.09,0 -0.435,0 -0.75,0.195 0.375,0.075 0.705,0.39 0.705,0.81 0,0.405 -0.33,0.525 -0.555,0.525 -0.45,0 -0.825,-0.39 -0.825,-0.87 0,-0.69 0.75,-0.975 1.41,-0.975 0.99,0 1.53,1.035 1.575,1.125 0.165,-0.555 0.705,-1.125 1.605,-1.125 1.545,0 2.4,1.92 2.4,2.295 0,0.15 -0.135,0.15 -0.18,0.15 -0.135,0 -0.165,-0.06 -0.195,-0.165 -0.495,-1.605 -1.515,-1.965 -1.995,-1.965 -0.585,0 -0.825,0.48 -0.825,0.99 0,0.33 0.09,0.66 0.255,1.305 z"
   style="fill:#000000;fill-opacity:1;stroke:#000000;stroke-width:0;stroke-opacity:1"
   id="path1944-0-6" /></g>    <g
       style="font-style:normal;font-variant:normal;font-weight:normal;font-stretch:normal;letter-spacing:normal;word-spacing:normal;text-anchor:start;fill:none;fill-opacity:1;fill-rule:evenodd;stroke:#000000;stroke-linecap:butt;stroke-linejoin:miter;stroke-miterlimit:10.43299961;stroke-dasharray:none;stroke-dashoffset:0;stroke-opacity:1"
       ns0:jacobian_sqrt="0.493889"
       inkscapeversion="0.92.3"
       ns0:alignment="middle center"
       ns0:scale="1.40000003119"
       ns0:preamble="C:\\Users\\Shuvomoy Das Gupta\\AppData\\Roaming\\inkscape\\extensions\\default_packages.tex"
       ns0:text="$\\mathop{{\\bf gra}}T_2$"
       ns0:pdfconverter="pstoedit"
       ns0:texconverter="pdflatex"
       ns0:version="0.8.1"
       word-spacing="normal"
       letter-spacing="normal"
       font-size-adjust="none"
       font-stretch="normal"
       font-weight="normal"
       font-variant="normal"
       font-style="normal"
       stroke-miterlimit="10.433"
       xml:space="preserve"
       transform="matrix(1.1112503,0,0,-1.1112503,54.704141,825.09371)"
       id="g1461">
<path
   id="path1451"
   style="fill:#000000;fill-opacity:1;stroke:#000000;stroke-width:0;stroke-opacity:1"
   d="m 150.04,659.02 0.04,-0.02 0.04,-0.02 0.05,-0.02 0.04,-0.02 0.05,-0.01 0.04,-0.02 0.04,-0.01 0.05,-0.02 0.04,-0.01 0.04,-0.01 0.05,-0.01 0.04,-0.01 0.08,-0.02 0.09,-0.02 h 0.04 l 0.03,-0.01 h 0.04 l 0.04,-0.01 h 0.04 0.03 l 0.04,-0.01 h 0.03 0.04 0.03 0.03 0.03 0.03 0.03 0.02 0.03 v 0.35 c -0.88,0 -0.88,0.67 -0.88,1.11 0,0.45 0,1.12 0.88,1.12 0.87,0 0.87,-0.67 0.87,-1.12 0,-0.44 0,-1.11 -0.87,-1.11 v 0 -0.35 c 1.43,0 1.98,0.77 1.98,1.46 0,0.47 -0.25,0.8 -0.4,0.96 0.3,0.16 0.51,0.18 0.62,0.19 -0.02,-0.05 -0.04,-0.14 -0.04,-0.2 0,-0.25 0.17,-0.43 0.43,-0.43 0.26,0 0.43,0.19 0.43,0.43 0,0.23 -0.17,0.58 -0.63,0.58 -0.15,0 -0.62,-0.04 -1.06,-0.38 -0.18,0.12 -0.6,0.33 -1.33,0.33 -1.44,0 -1.99,-0.78 -1.99,-1.48 0,-0.4 0.2,-0.81 0.52,-1.04 -0.28,-0.35 -0.34,-0.67 -0.34,-0.88 0,-0.15 0.04,-0.64 0.44,-0.96 -0.13,-0.03 -0.86,-0.23 -0.86,-0.86 0,-0.51 0.55,-1.25 2.54,-1.25 v 0.36 c -1.19,0 -1.68,0.45 -1.68,0.91 0,0.6 0.63,0.6 0.77,0.6 v 0 h 1.16 c 0.31,0 1.44,0 1.44,-0.62 0,-0.36 -0.39,-0.89 -1.69,-0.89 v -0.36 c 1.77,0 2.55,0.58 2.55,1.28 0,0.3 -0.08,0.92 -0.75,1.26 -0.56,0.28 -1.16,0.28 -2.11,0.28 -0.26,0 -0.72,0 -0.77,0.01 -0.44,0.07 -0.55,0.45 -0.55,0.63 0,0.09 0.04,0.24 0.1,0.32 z"
   inkscape:connector-curvature="0" />
<path
   id="path1453"
   style="fill:#000000;fill-opacity:1;stroke:#000000;stroke-width:0;stroke-opacity:1"
   d="m 156.46,660.58 v 1.13 l -1.65,-0.08 v -0.47 c 0.62,0 0.69,0 0.69,-0.39 v -3.07 h -0.69 v -0.47 c 0.35,0.01 0.8,0.04 1.26,0.04 0.38,0 1.01,0 1.37,-0.04 v 0.47 h -0.87 v 1.74 c 0,0.7 0.25,1.91 1.25,1.91 -0.01,-0.01 -0.19,-0.17 -0.19,-0.46 0,-0.41 0.32,-0.61 0.61,-0.61 0.29,0 0.61,0.21 0.61,0.61 0,0.53 -0.54,0.82 -1.06,0.82 -0.7,0 -1.1,-0.5 -1.33,-1.13 z"
   inkscape:connector-curvature="0" />
<path
   id="path1455"
   style="fill:#000000;fill-opacity:1;stroke:#000000;stroke-width:0;stroke-opacity:1"
   d="m 162.89,658 v -0.06 -0.06 -0.03 -0.03 l 0.01,-0.04 v -0.03 l 0.01,-0.03 0.01,-0.03 0.01,-0.04 0.01,-0.03 0.02,-0.03 0.01,-0.03 0.02,-0.03 0.03,-0.03 0.02,-0.03 0.03,-0.02 0.04,-0.03 0.01,-0.01 0.02,-0.01 0.02,-0.02 0.02,-0.01 0.02,-0.01 0.02,-0.01 0.03,-0.01 0.02,-0.01 0.03,-0.01 0.03,-0.01 0.02,-0.01 0.03,-0.01 h 0.03 l 0.03,-0.01 0.04,-0.01 h 0.03 l 0.04,-0.01 h 0.03 l 0.04,-0.01 h 0.04 l 0.04,-0.01 h 0.04 0.05 0.04 0.05 l 0.05,-0.01 h 0.47 c 0.2,0 0.32,0 0.32,0.24 0,0.23 -0.13,0.23 -0.26,0.23 -0.6,0.01 -0.6,0.14 -0.6,0.37 v 2.14 c 0,0.88 -0.71,1.52 -2.2,1.52 -0.57,0 -1.78,-0.03 -1.78,-0.91 0,-0.44 0.35,-0.62 0.61,-0.62 0.31,0 0.63,0.2 0.63,0.62 0,0.3 -0.19,0.47 -0.22,0.49 0.28,0.06 0.6,0.07 0.72,0.07 0.75,0 1.1,-0.42 1.1,-1.17 v -0.34 -0.31 -0.94 c 0,-0.96 -0.92,-1.09 -1.17,-1.09 -0.51,0 -0.9,0.35 -0.9,0.79 0,1.07 1.57,1.21 2.07,1.24 v 0 0.31 c -0.71,-0.03 -3.24,-0.12 -3.24,-1.56 0,-0.96 1.23,-1.14 1.92,-1.14 0.8,0 1.27,0.41 1.49,0.83 z"
   inkscape:connector-curvature="0" />
<path
   id="path1457"
   style="fill:#000000;fill-opacity:1;stroke:#000000;stroke-width:0;stroke-opacity:1"
   d="m 170.65,663.27 v 0.02 l 0.01,0.02 0.01,0.03 v 0.02 l 0.01,0.02 v 0.02 l 0.01,0.02 0.01,0.02 v 0.01 l 0.01,0.02 v 0.01 l 0.01,0.02 v 0.01 l 0.01,0.01 0.01,0.01 v 0.01 l 0.01,0.01 0.01,0.01 v 0.01 l 0.01,0.01 h 0.01 v 0.01 l 0.01,0.01 h 0.01 l 0.01,0.01 h 0.01 l 0.01,0.01 v 0 h 0.01 l 0.01,0.01 h 0.02 0.01 c 0.09,0.02 0.41,0.02 0.63,0.02 1,0 1.45,-0.04 1.45,-0.81 0,-0.15 -0.04,-0.54 -0.08,-0.8 -0.01,-0.04 -0.03,-0.16 -0.03,-0.19 0,-0.06 0.03,-0.13 0.12,-0.13 0.11,0 0.13,0.08 0.15,0.23 l 0.27,1.73 c 0.01,0.04 0.02,0.14 0.02,0.17 0,0.11 -0.1,0.11 -0.27,0.11 h -5.53 c -0.24,0 -0.25,-0.01 -0.32,-0.2 l -0.6,-1.75 c -0.01,-0.02 -0.06,-0.16 -0.06,-0.18 0,-0.05 0.05,-0.11 0.12,-0.11 0.1,0 0.11,0.06 0.17,0.21 0.54,1.54 0.79,1.72 2.27,1.72 h 0.39 c 0.28,0 0.28,-0.04 0.28,-0.12 0,-0.06 -0.03,-0.18 -0.04,-0.21 l -1.34,-5.3 c -0.09,-0.37 -0.12,-0.48 -1.18,-0.48 -0.36,0 -0.42,0 -0.42,-0.19 0,-0.12 0.11,-0.12 0.17,-0.12 0.27,0 0.55,0.03 0.82,0.03 0.27,0 0.56,0.01 0.84,0.01 0.28,0 0.56,-0.01 0.83,-0.01 0.29,0 0.59,-0.03 0.87,-0.03 0.1,0 0.22,0 0.22,0.2 0,0.11 -0.08,0.11 -0.34,0.11 -0.25,0 -0.38,0 -0.64,0.02 -0.29,0.03 -0.37,0.06 -0.37,0.22 0,0.01 0,0.06 0.04,0.21 z"
   inkscape:connector-curvature="0" />
<path
   id="path1459"
   style="fill:#000000;fill-opacity:1;stroke:#000000;stroke-width:0;stroke-opacity:1"
   d="m 175.74,657.01 h -0.24 c -0.02,-0.16 -0.09,-0.57 -0.18,-0.64 -0.05,-0.04 -0.59,-0.04 -0.69,-0.04 h -1.29 c 0.74,0.65 0.98,0.84 1.4,1.17 0.52,0.41 1,0.84 1,1.5 0,0.84 -0.74,1.36 -1.63,1.36 -0.87,0 -1.46,-0.61 -1.46,-1.25 0,-0.35 0.3,-0.39 0.37,-0.39 0.17,0 0.37,0.12 0.37,0.37 0,0.13 -0.05,0.37 -0.41,0.37 0.22,0.5 0.69,0.65 1.02,0.65 0.7,0 1.06,-0.54 1.06,-1.11 0,-0.6 -0.43,-1.08 -0.65,-1.33 l -1.69,-1.66 c -0.07,-0.06 -0.07,-0.07 -0.07,-0.27 h 2.88 z"
   inkscape:connector-curvature="0" />
</g>    <text
       xml:space="preserve"
       style="font-style:normal;font-weight:normal;font-size:7.9375px;line-height:14.8828125px;font-family:sans-serif;letter-spacing:0px;word-spacing:0px;fill:#000000;fill-opacity:1;stroke:none;stroke-width:0.59531248px;stroke-linecap:butt;stroke-linejoin:miter;stroke-opacity:1"
       x="-94.018883"
       y="228.16785"
       id="text1542"><tspan
         sodipodi:role="line"
         id="tspan1540"
         x="-94.018883"
         y="228.16785"
         style="stroke-width:0.59531248px">monotone, but not maximally monotone</tspan></text>
    <text
       xml:space="preserve"
       style="font-style:normal;font-weight:normal;font-size:7.9375px;line-height:14.8828125px;font-family:sans-serif;letter-spacing:0px;word-spacing:0px;fill:#000000;fill-opacity:1;stroke:none;stroke-width:0.59531248px;stroke-linecap:butt;stroke-linejoin:miter;stroke-opacity:1"
       x="153.21274"
       y="228.72466"
       id="text1546"><tspan
         sodipodi:role="line"
         id="tspan1544"
         x="153.21274"
         y="228.72466"
         style="stroke-width:0.59531248px">maximally monotone</tspan></text>
    <path
       style="fill:none;stroke:#000000;stroke-width:1;stroke-linecap:butt;stroke-linejoin:miter;stroke-miterlimit:4;stroke-dasharray:none;stroke-opacity:1"
       d="m -87.312499,204.39582 c 16.950775,-2.17397 33.401555,-6.61678 47.624999,-21.16666 v -21.16667 h 31.7500001"
       id="path19459"
       inkscape:connector-curvature="0"
       sodipodi:nodetypes="cccc" />
    <path
       style="fill:none;stroke:#000000;stroke-width:1;stroke-linecap:butt;stroke-linejoin:miter;stroke-miterlimit:4;stroke-dasharray:none;stroke-opacity:1"
       d="M 7.9374999,148.83332 V 111.79166 L 31.75,87.979156 V 69.458323 h 23.812499"
       id="path19461"
       inkscape:connector-curvature="0" />
    <path
       style="fill:none;stroke:#000000;stroke-width:1;stroke-linecap:butt;stroke-linejoin:miter;stroke-miterlimit:4;stroke-dasharray:none;stroke-opacity:1"
       d="m 240.77083,146.18749 v -37.04166 l 23.8125,-23.812505 V 66.812492 h 23.8125"
       id="path19461-9"
       inkscape:connector-curvature="0" />
    <path
       style="fill:none;stroke:#000000;stroke-width:1;stroke-linecap:butt;stroke-linejoin:miter;stroke-miterlimit:4;stroke-dasharray:none;stroke-opacity:1"
       d="m 224.89583,159.41666 c 7.66469,-1.13213 14.01021,-4.08628 15.875,-13.22917"
       id="path19493-6"
       inkscape:connector-curvature="0"
       sodipodi:nodetypes="cc" />
    <path
       style="fill:none;stroke:#000000;stroke-width:1;stroke-linecap:butt;stroke-linejoin:miter;stroke-miterlimit:4;stroke-dasharray:none;stroke-opacity:1"
       d="m 145.52083,201.74998 c 16.95078,-2.17397 33.40156,-6.61678 47.625,-21.16666 v -21.16667 h 31.75"
       id="path19459-0"
       inkscape:connector-curvature="0"
       sodipodi:nodetypes="cccc" />
  </g>
</svg>
