<?xml version="1.0" encoding="UTF-8" standalone="no"?>
<!-- Created with Inkscape (http://www.inkscape.org/) -->

<svg
   xmlns:ns0="http://www.iki.fi/pav/software/textext/"
   xmlns:dc="http://purl.org/dc/elements/1.1/"
   xmlns:cc="http://creativecommons.org/ns#"
   xmlns:rdf="http://www.w3.org/1999/02/22-rdf-syntax-ns#"
   xmlns:svg="http://www.w3.org/2000/svg"
   xmlns="http://www.w3.org/2000/svg"
   xmlns:sodipodi="http://sodipodi.sourceforge.net/DTD/sodipodi-0.dtd"
   xmlns:inkscape="http://www.inkscape.org/namespaces/inkscape"
   width="93.62014mm"
   height="74.960571mm"
   viewBox="0 0 93.62014 74.960571"
   version="1.1"
   id="svg1554"
   inkscape:version="0.92.3 (2405546, 2018-03-11)"
   sodipodi:docname="nonexpansive_operator.svg">
  <sodipodi:namedview
     id="base"
     pagecolor="#ffffff"
     bordercolor="#666666"
     borderopacity="1.0"
     inkscape:pageopacity="0.0"
     inkscape:pageshadow="2"
     inkscape:zoom="2.8"
     inkscape:cx="193.82433"
     inkscape:cy="101.61383"
     inkscape:document-units="mm"
     inkscape:current-layer="layer1"
     showgrid="false"
     inkscape:measure-start="309.864,888.429"
     inkscape:measure-end="492.197,888.429"
     inkscape:window-width="3840"
     inkscape:window-height="2035"
     inkscape:window-x="5459"
     inkscape:window-y="-13"
     inkscape:window-maximized="1" />
  <defs
     id="defs1548">
    <marker
       inkscape:stockid="Arrow1Lend"
       orient="auto"
       refY="0"
       refX="0"
       id="marker2905"
       style="overflow:visible"
       inkscape:isstock="true">
      <path
         id="path2903"
         d="M 0,0 5,-5 -12.5,0 5,5 Z"
         style="fill:#000000;fill-opacity:1;fill-rule:evenodd;stroke:#000000;stroke-width:1.00000003pt;stroke-opacity:1"
         transform="matrix(-0.8,0,0,-0.8,-10,0)"
         inkscape:connector-curvature="0" />
    </marker>
    <marker
       inkscape:isstock="true"
       style="overflow:visible"
       id="marker2847"
       refX="0"
       refY="0"
       orient="auto"
       inkscape:stockid="Arrow1Lstart">
      <path
         transform="matrix(0.8,0,0,0.8,10,0)"
         style="fill:#000000;fill-opacity:1;fill-rule:evenodd;stroke:#000000;stroke-width:1.00000003pt;stroke-opacity:1"
         d="M 0,0 5,-5 -12.5,0 5,5 Z"
         id="path2845"
         inkscape:connector-curvature="0" />
    </marker>
    <marker
       inkscape:isstock="true"
       style="overflow:visible"
       id="marker2615"
       refX="0"
       refY="0"
       orient="auto"
       inkscape:stockid="Arrow1Lend"
       inkscape:collect="always">
      <path
         transform="matrix(-0.8,0,0,-0.8,-10,0)"
         style="fill:#000000;fill-opacity:1;fill-rule:evenodd;stroke:#000000;stroke-width:1.00000003pt;stroke-opacity:1"
         d="M 0,0 5,-5 -12.5,0 5,5 Z"
         id="path2613"
         inkscape:connector-curvature="0" />
    </marker>
    <marker
       inkscape:stockid="Arrow1Lstart"
       orient="auto"
       refY="0"
       refX="0"
       id="Arrow1Lstart"
       style="overflow:visible"
       inkscape:isstock="true"
       inkscape:collect="always">
      <path
         id="path2130"
         d="M 0,0 5,-5 -12.5,0 5,5 Z"
         style="fill:#000000;fill-opacity:1;fill-rule:evenodd;stroke:#000000;stroke-width:1.00000003pt;stroke-opacity:1"
         transform="matrix(0.8,0,0,0.8,10,0)"
         inkscape:connector-curvature="0" />
    </marker>
    <marker
       inkscape:isstock="true"
       style="overflow:visible"
       id="marker2425"
       refX="0"
       refY="0"
       orient="auto"
       inkscape:stockid="Arrow1Lend">
      <path
         transform="matrix(-0.8,0,0,-0.8,-10,0)"
         style="fill:#000000;fill-opacity:1;fill-rule:evenodd;stroke:#000000;stroke-width:1.00000003pt;stroke-opacity:1"
         d="M 0,0 5,-5 -12.5,0 5,5 Z"
         id="path2423"
         inkscape:connector-curvature="0" />
    </marker>
    <marker
       inkscape:stockid="Arrow1Lend"
       orient="auto"
       refY="0"
       refX="0"
       id="Arrow1Lend"
       style="overflow:visible"
       inkscape:isstock="true"
       inkscape:collect="always">
      <path
         id="path2133"
         d="M 0,0 5,-5 -12.5,0 5,5 Z"
         style="fill:#000000;fill-opacity:1;fill-rule:evenodd;stroke:#000000;stroke-width:1.00000003pt;stroke-opacity:1"
         transform="matrix(-0.8,0,0,-0.8,-10,0)"
         inkscape:connector-curvature="0" />
    </marker>
  </defs>
  <metadata
     id="metadata1551">
    <rdf:RDF>
      <cc:Work
         rdf:about="">
        <dc:format>image/svg+xml</dc:format>
        <dc:type
           rdf:resource="http://purl.org/dc/dcmitype/StillImage" />
        <dc:title></dc:title>
      </cc:Work>
    </rdf:RDF>
  </metadata>
  <g
     inkscape:label="Layer 1"
     inkscape:groupmode="layer"
     id="layer1"
     transform="translate(-64.059,-59.499445)">
    <ellipse
       style="fill:#ff7272;fill-opacity:1;stroke-width:1;stroke-miterlimit:4;stroke-dasharray:none;stroke-dashoffset:0"
       id="path2099"
       cx="84.005211"
       cy="68.040924"
       rx="2.2678571"
       ry="2.1733632" />
    <ellipse
       style="fill:#dd0b38;fill-opacity:1;stroke-width:1;stroke-miterlimit:4;stroke-dasharray:none;stroke-dashoffset:0"
       id="path2099-6"
       cx="130.77977"
       cy="101.58631"
       rx="2.2678571"
       ry="2.1733632" />
    <ellipse
       style="fill:#82dd95;fill-opacity:1;stroke-width:1;stroke-miterlimit:4;stroke-dasharray:none;stroke-dashoffset:0"
       id="path2099-9"
       cx="130.2128"
       cy="67.662949"
       rx="2.2678571"
       ry="2.1733632" />
    <ellipse
       style="fill:#005016;fill-opacity:1;stroke-width:1;stroke-miterlimit:4;stroke-dasharray:none;stroke-dashoffset:0"
       id="path2099-2"
       cx="90.147316"
       cy="129.27306"
       rx="2.2678571"
       ry="2.1733632" />
    <path
       style="fill:none;stroke:#000000;stroke-width:0.48273531;stroke-linecap:butt;stroke-linejoin:miter;stroke-miterlimit:4;stroke-dasharray:none;stroke-opacity:1;marker-end:url(#Arrow1Lend)"
       d="M 85.133851,70.207473 128.06647,100.09371"
       id="path2128"
       inkscape:connector-curvature="0" />
    <path
       style="fill:none;stroke:#000000;stroke-width:0.48676729;stroke-linecap:butt;stroke-linejoin:miter;stroke-miterlimit:4;stroke-dasharray:none;stroke-opacity:1;marker-end:url(#marker2425)"
       d="M 128.98832,69.263579 91.927873,126.92924"
       id="path2415"
       inkscape:connector-curvature="0" />
    <path
       style="fill:none;stroke:#000000;stroke-width:0.25424853;stroke-linecap:butt;stroke-linejoin:miter;stroke-miterlimit:4;stroke-dasharray:2.0339883, 1.01699415;stroke-dashoffset:0;stroke-opacity:1;marker-start:url(#Arrow1Lstart);marker-mid:url(#Arrow1Lstart);marker-end:url(#marker2615)"
       d="M 86.342748,67.368 127.68802,67.081388"
       id="path2451"
       inkscape:connector-curvature="0" />
    <path
       style="fill:none;stroke:#000000;stroke-width:0.2395927;stroke-linecap:butt;stroke-linejoin:miter;stroke-miterlimit:4;stroke-dasharray:1.9167416, 0.95837079;stroke-dashoffset:0;stroke-opacity:1;marker-start:url(#marker2847);marker-end:url(#marker2905)"
       d="M 92.501497,128.91557 129.06495,103.46874"
       id="path2453"
       inkscape:connector-curvature="0" />
    <g
       id="g3719"
       transform="matrix(0.493889,0,0,-0.493889,30.183225,474.16053)"
       xml:space="preserve"
       stroke-miterlimit="10.433"
       font-style="normal"
       font-variant="normal"
       font-weight="normal"
       font-stretch="normal"
       font-size-adjust="none"
       letter-spacing="normal"
       word-spacing="normal"
       ns0:version="0.8.1"
       ns0:texconverter="pdflatex"
       ns0:pdfconverter="pstoedit"
       ns0:text="$x$"
       ns0:preamble="C:\\Users\\Shuvomoy Das Gupta\\AppData\\Roaming\\inkscape\\extensions\\default_packages.tex"
       ns0:scale="1.40000003119"
       ns0:alignment="middle center"
       ns0:jacobian_sqrt="0.493889"
       style="font-style:normal;font-variant:normal;font-weight:normal;font-stretch:normal;letter-spacing:normal;word-spacing:normal;text-anchor:start;fill:none;fill-opacity:1;fill-rule:evenodd;stroke:#000000;stroke-linecap:butt;stroke-linejoin:miter;stroke-miterlimit:10.43299961;stroke-dasharray:none;stroke-dashoffset:0;stroke-opacity:1">
<path
   style="fill:#000000;stroke-width:0"
   inkscape:connector-curvature="0"
   d="m 96.666319,823.98415 0.012,0.036 0.012,0.036 v 0.036 l 0.012,0.048 0.012,0.048 0.024,0.048 0.012,0.048 0.012,0.06 0.024,0.048 0.024,0.06 0.024,0.06 0.024,0.06 0.024,0.06 0.024,0.06 0.036,0.06 0.036,0.06 0.036,0.06 0.036,0.048 0.036,0.06 0.048,0.048 0.036,0.06 0.048,0.048 0.06,0.048 0.048,0.036 0.06,0.036 0.048,0.036 0.036,0.012 0.036,0.024 0.024,0.012 0.036,0.012 0.036,0.012 h 0.036 l 0.024,0.012 0.036,0.012 h 0.036 0.048 l 0.036,0.012 h 0.036 c 0.06,0 0.348,0 0.6,-0.156 -0.336,-0.06 -0.576,-0.36 -0.576,-0.648 0,-0.192 0.132,-0.42 0.456,-0.42 0.264,0 0.648,0.216 0.648,0.696 0,0.624 -0.708,0.792 -1.116,0.792 -0.696,0 -1.116,-0.636 -1.26,-0.912 -0.3,0.792 -0.936,0.912 -1.284,0.912 -1.248,0 -1.932,-1.548 -1.932,-1.836 0,-0.12 0.12,-0.12 0.144,-0.12 0.096,0 0.132,0.024 0.156,0.132 0.408,1.26 1.2,1.56 1.608,1.56 0.228,0 0.636,-0.108 0.636,-0.804 0,-0.372 -0.204,-1.164 -0.636,-2.832 -0.192,-0.744 -0.612,-1.248 -1.14,-1.248 -0.072,0 -0.348,0 -0.6,0.156 0.3,0.06 0.564,0.312 0.564,0.648 0,0.324 -0.264,0.42 -0.444,0.42 -0.36,0 -0.66,-0.312 -0.66,-0.696 0,-0.552 0.6,-0.78 1.128,-0.78 0.792,0 1.224,0.828 1.26,0.9 0.132,-0.444 0.564,-0.9 1.284,-0.9 1.236,0 1.92,1.536 1.92,1.836 0,0.12 -0.108,0.12 -0.144,0.12 -0.108,0 -0.132,-0.048 -0.156,-0.132 -0.396,-1.284 -1.212,-1.572 -1.596,-1.572 -0.468,0 -0.66,0.384 -0.66,0.792 0,0.264 0.072,0.528 0.204,1.044 z"
   id="path3662" />
<g
   ns0:jacobian_sqrt="0.493889"
   ns0:alignment="middle center"
   ns0:scale="1.40000003119"
   ns0:preamble="C:\\Users\\Shuvomoy Das Gupta\\AppData\\Roaming\\inkscape\\extensions\\default_packages.tex"
   ns0:text="$y$"
   ns0:pdfconverter="pstoedit"
   ns0:texconverter="pdflatex"
   ns0:version="0.8.1"
   word-spacing="normal"
   letter-spacing="normal"
   font-size-adjust="none"
   font-stretch="normal"
   font-weight="normal"
   font-variant="normal"
   font-style="normal"
   stroke-miterlimit="10.433"
   xml:space="preserve"
   transform="matrix(0.493889,0,0,-0.493889,30.274594,473.68393)"
   id="content"
   style="font-style:normal;font-variant:normal;font-weight:normal;font-stretch:normal;letter-spacing:normal;word-spacing:normal;text-anchor:start;fill:none;fill-opacity:1;fill-rule:evenodd;stroke:#000000;stroke-linecap:butt;stroke-linejoin:miter;stroke-miterlimit:10.43299961;stroke-dasharray:none;stroke-dashoffset:0;stroke-opacity:1">
<path
   id="path3716"
   d="m 378.81,-715.76579 v -0.0225 0 -0.0225 h 0.0225 v -0.045 -0.0225 -0.0225 l 0.0225,-0.0225 v -0.0225 0 -0.0225 l 0.0225,-0.0225 v -0.0225 -0.0225 0 -0.0225 0 -0.0225 -0.0225 0 l 0.0225,-0.0225 v 0 -0.0225 -0.0225 -0.0225 -0.0225 -0.0225 -0.0225 0 -0.0225 c 0,-0.405 -0.315,-0.6075 -0.6525,-0.6075 -0.225,0 -0.585,0.135 -0.7875,0.4725 -0.045,0.1125 -0.225,0.81 -0.315,1.215 -0.1575,0.585 -0.315,1.1925 -0.45,1.7775 l -1.0125,4.0275 c -0.09,0.3375 -1.0575,1.9125 -2.5425,1.9125 -1.125,0 -1.3725,-0.99 -1.3725,-1.8225 0,-1.035 0.3825,-2.4075 1.1475,-4.3875 0.36,-0.9 0.4275,-1.1475 0.4275,-1.5975 0,-1.0125 -0.6975,-1.845 -1.8225,-1.845 -2.1375,0 -2.97,3.2625 -2.97,3.4425 0,0.225 0.225,0.225 0.27,0.225 0.225,0 0.2475,-0.045 0.36,-0.3825 0.6075,-2.115 1.5075,-2.79 2.2725,-2.79 0.18,0 0.5625,0 0.5625,0.72 0,0.5625 -0.225,1.1475 -0.3825,1.575 -0.9,2.3625 -1.305,3.6225 -1.305,4.68 0,2.0025 1.4175,2.655 2.745,2.655 0.8775,0 1.62,-0.36 2.25,-0.99 -0.2925,1.1475 -0.5625,2.25 -1.44,3.4425 -0.6075,0.7425 -1.44,1.395 -2.475,1.395 -0.315,0 -1.3275,-0.0675 -1.71,-0.9225 0.36,0 0.6525,0 0.9675,-0.27 0.225,-0.2025 0.45,-0.495 0.45,-0.9225 0,-0.6975 -0.6075,-0.7875 -0.8325,-0.7875 -0.5175,0 -1.26,0.36 -1.26,1.4625 0,1.1025 0.99,1.935 2.385,1.935 2.295,0 4.6125,-2.025 5.2425,-4.545 z"
   inkscape:connector-curvature="0"
   style="fill:#000000;stroke-width:0" />
</g><g
   id="g3808"
   transform="matrix(1.2289538,0,0,1.2289538,-44.459541,22.722546)"
   xml:space="preserve"
   stroke-miterlimit="10.433"
   font-style="normal"
   font-variant="normal"
   font-weight="normal"
   font-stretch="normal"
   font-size-adjust="none"
   letter-spacing="normal"
   word-spacing="normal"
   ns0:version="0.8.1"
   ns0:texconverter="pdflatex"
   ns0:pdfconverter="pstoedit"
   ns0:text="$\\|x-y\\|$"
   ns0:preamble="C:\\Users\\Shuvomoy Das Gupta\\AppData\\Roaming\\inkscape\\extensions\\default_packages.tex"
   ns0:scale="1.40000003119"
   ns0:alignment="middle center"
   ns0:jacobian_sqrt="0.493889"
   style="font-style:normal;font-variant:normal;font-weight:normal;font-stretch:normal;letter-spacing:normal;word-spacing:normal;text-anchor:start;fill:none;fill-opacity:1;fill-rule:evenodd;stroke:#000000;stroke-linecap:butt;stroke-linejoin:miter;stroke-miterlimit:10.43299961;stroke-dasharray:none;stroke-dashoffset:0;stroke-opacity:1">
<path
   inkscape:connector-curvature="0"
   d="m 150.43,664.35 v 0.03 0.03 0.03 l -0.01,0.01 v 0.02 0.01 0.02 0.01 0.01 l -0.01,0.02 v 0.01 0.01 l -0.01,0.02 v 0.01 l -0.01,0.01 v 0.01 l -0.01,0.01 -0.01,0.01 -0.01,0.01 -0.01,0.01 h -0.01 v 0.01 h -0.01 v 0 l -0.01,0.01 h -0.01 v 0 h -0.01 l -0.01,0.01 v 0 h -0.01 -0.01 -0.01 -0.01 v 0 h -0.01 -0.01 c -0.2,0 -0.2,-0.21 -0.2,-0.36 v -9.2 c 0,-0.16 0,-0.37 0.2,-0.37 0.2,0 0.2,0.18 0.2,0.34 z"
   style="fill:#000000;fill-opacity:1;stroke:#000000;stroke-width:0;stroke-opacity:1"
   id="path3794" />
<path
   inkscape:connector-curvature="0"
   d="m 152.37,664.32 v 0.03 0.03 0.03 0.03 0.02 0.01 l -0.01,0.02 v 0.01 0.02 0.01 l -0.01,0.02 v 0.01 l -0.01,0.01 v 0.02 l -0.01,0.01 -0.01,0.01 v 0.01 l -0.01,0.01 -0.01,0.01 -0.01,0.01 h -0.01 v 0.01 h -0.01 -0.01 v 0.01 h -0.01 v 0 l -0.01,0.01 h -0.01 -0.01 v 0 h -0.01 -0.01 -0.01 -0.01 -0.01 c -0.2,0 -0.2,-0.17 -0.2,-0.33 v -9.26 c 0,-0.16 0,-0.34 0.2,-0.34 0.2,0 0.2,0.22 0.2,0.37 z"
   style="fill:#000000;fill-opacity:1;stroke:#000000;stroke-width:0;stroke-opacity:1"
   id="path3796" />
<path
   inkscape:connector-curvature="0"
   d="m 157.02,660.23 0.01,0.03 0.01,0.03 0.01,0.03 0.01,0.04 0.01,0.04 0.01,0.04 0.01,0.04 0.02,0.05 0.01,0.04 0.02,0.05 0.02,0.05 0.02,0.05 0.02,0.05 0.03,0.05 0.02,0.05 0.03,0.05 0.03,0.05 0.03,0.04 0.03,0.05 0.04,0.04 0.04,0.05 0.04,0.04 0.04,0.04 0.04,0.03 0.05,0.03 0.05,0.03 0.02,0.01 0.03,0.02 0.02,0.01 0.03,0.01 0.03,0.01 h 0.03 l 0.03,0.01 0.03,0.01 h 0.03 0.03 l 0.03,0.01 h 0.03 c 0.05,0 0.29,0 0.5,-0.13 -0.28,-0.05 -0.48,-0.3 -0.48,-0.54 0,-0.16 0.11,-0.35 0.38,-0.35 0.22,0 0.54,0.18 0.54,0.58 0,0.52 -0.59,0.66 -0.93,0.66 -0.58,0 -0.93,-0.53 -1.04,-0.76 -0.25,0.66 -0.79,0.76 -1.08,0.76 -1.04,0 -1.61,-1.29 -1.61,-1.53 0,-0.1 0.1,-0.1 0.12,-0.1 0.08,0 0.11,0.02 0.13,0.11 0.34,1.05 1,1.3 1.34,1.3 0.19,0 0.54,-0.09 0.54,-0.67 0,-0.31 -0.17,-0.97 -0.54,-2.36 -0.16,-0.62 -0.51,-1.04 -0.95,-1.04 -0.06,0 -0.29,0 -0.5,0.13 0.25,0.05 0.47,0.26 0.47,0.54 0,0.27 -0.22,0.35 -0.37,0.35 -0.3,0 -0.55,-0.26 -0.55,-0.58 0,-0.46 0.5,-0.65 0.94,-0.65 0.66,0 1.02,0.69 1.05,0.75 0.12,-0.37 0.48,-0.75 1.07,-0.75 1.03,0 1.6,1.28 1.6,1.53 0,0.1 -0.09,0.1 -0.12,0.1 -0.09,0 -0.11,-0.04 -0.13,-0.11 -0.33,-1.07 -1.01,-1.31 -1.32,-1.31 -0.39,0 -0.55,0.32 -0.55,0.66 0,0.22 0.06,0.44 0.17,0.87 z"
   style="fill:#000000;fill-opacity:1;stroke:#000000;stroke-width:0;stroke-opacity:1"
   id="path3798" />
<path
   inkscape:connector-curvature="0"
   d="m 168.17,659.52 h 0.03 0.04 0.03 0.01 0.02 0.01 l 0.02,0.01 h 0.01 0.02 0.01 l 0.02,0.01 h 0.01 0.01 l 0.01,0.01 0.01,0.01 h 0.02 l 0.01,0.01 0.01,0.01 h 0.01 v 0.01 l 0.01,0.01 v 0.01 h 0.01 v 0.01 0.01 h 0.01 v 0.01 0.01 0 l 0.01,0.01 v 0.01 0.01 0 0.01 0.01 0.01 0.01 c 0,0.2 -0.18,0.2 -0.35,0.2 h -5.39 c -0.17,0 -0.35,0 -0.35,-0.2 0,-0.2 0.18,-0.2 0.35,-0.2 z"
   style="fill:#000000;fill-opacity:1;stroke:#000000;stroke-width:0;stroke-opacity:1"
   id="path3800" />
<path
   inkscape:connector-curvature="0"
   d="m 176.41,661.02 v 0.01 0 l 0.01,0.01 v 0 0.02 0.01 l 0.01,0.01 v 0.01 0.01 0 l 0.01,0.01 v 0.01 0.01 0.01 0 0.01 0 0.01 l 0.01,0.01 v 0 0.01 0 0.01 0.01 0.01 0.01 0.01 0.01 0 0.01 c 0,0.18 -0.14,0.27 -0.29,0.27 -0.1,0 -0.26,-0.06 -0.35,-0.21 -0.02,-0.05 -0.1,-0.36 -0.14,-0.54 -0.07,-0.26 -0.14,-0.53 -0.2,-0.79 l -0.45,-1.79 c -0.04,-0.15 -0.46,-0.85 -1.12,-0.85 -0.51,0 -0.62,0.44 -0.62,0.81 0,0.46 0.17,1.07 0.51,1.95 0.16,0.4 0.2,0.51 0.2,0.71 0,0.45 -0.32,0.82 -0.82,0.82 -0.95,0 -1.32,-1.45 -1.32,-1.53 0,-0.1 0.1,-0.1 0.12,-0.1 0.1,0 0.11,0.02 0.16,0.17 0.27,0.94 0.67,1.24 1.01,1.24 0.08,0 0.25,0 0.25,-0.32 0,-0.25 -0.1,-0.51 -0.17,-0.7 -0.4,-1.05 -0.58,-1.61 -0.58,-2.08 0,-0.89 0.63,-1.18 1.22,-1.18 0.39,0 0.73,0.16 1.01,0.44 -0.13,-0.51 -0.25,-1 -0.65,-1.53 -0.26,-0.33 -0.64,-0.62 -1.1,-0.62 -0.14,0 -0.59,0.03 -0.76,0.41 0.16,0 0.29,0 0.43,0.12 0.1,0.09 0.2,0.22 0.2,0.41 0,0.31 -0.27,0.35 -0.37,0.35 -0.23,0 -0.56,-0.16 -0.56,-0.65 0,-0.49 0.44,-0.86 1.06,-0.86 1.03,0 2.05,0.9 2.33,2.02 z"
   style="fill:#000000;fill-opacity:1;stroke:#000000;stroke-width:0;stroke-opacity:1"
   id="path3802" />
<path
   inkscape:connector-curvature="0"
   d="m 178.52,664.35 v 0.03 0.03 0.03 0.01 0.02 0.01 l -0.01,0.02 v 0.01 0.01 0.02 l -0.01,0.01 v 0.01 0.02 l -0.01,0.01 v 0.01 l -0.01,0.01 -0.01,0.01 -0.01,0.01 v 0.01 l -0.01,0.01 h -0.01 l -0.01,0.01 v 0 h -0.01 l -0.01,0.01 v 0 h -0.01 -0.01 v 0.01 h -0.01 -0.01 v 0 h -0.01 -0.01 -0.01 -0.01 -0.01 c -0.2,0 -0.2,-0.21 -0.2,-0.36 v -9.2 c 0,-0.16 0,-0.37 0.2,-0.37 0.2,0 0.2,0.18 0.2,0.34 z"
   style="fill:#000000;fill-opacity:1;stroke:#000000;stroke-width:0;stroke-opacity:1"
   id="path3804" />
<path
   inkscape:connector-curvature="0"
   d="m 180.47,664.32 v 0.03 0.03 l -0.01,0.03 v 0.03 0.02 0.01 0.02 0.01 l -0.01,0.02 v 0.01 0.02 l -0.01,0.01 v 0.01 l -0.01,0.02 -0.01,0.01 v 0.01 l -0.01,0.01 -0.01,0.01 -0.01,0.01 -0.01,0.01 v 0 l -0.01,0.01 h -0.01 v 0 l -0.01,0.01 v 0 h -0.01 l -0.01,0.01 h -0.01 v 0 h -0.01 -0.01 -0.01 -0.01 v 0 h -0.01 c -0.2,0 -0.2,-0.17 -0.2,-0.33 v -9.26 c 0,-0.16 0,-0.34 0.2,-0.34 0.2,0 0.2,0.22 0.2,0.37 z"
   style="fill:#000000;fill-opacity:1;stroke:#000000;stroke-width:0;stroke-opacity:1"
   id="path3806" />
</g><g
   style="font-style:normal;font-variant:normal;font-weight:normal;font-stretch:normal;letter-spacing:normal;word-spacing:normal;text-anchor:start;fill:none;fill-opacity:1;fill-rule:evenodd;stroke:#000000;stroke-linecap:butt;stroke-linejoin:miter;stroke-miterlimit:10.43299961;stroke-dasharray:none;stroke-dashoffset:0;stroke-opacity:1"
   ns0:jacobian_sqrt="1.228954"
   ns0:alignment="middle center"
   ns0:scale="3.48364786082"
   ns0:preamble="C:\\Users\\Shuvomoy Das Gupta\\AppData\\Roaming\\inkscape\\extensions\\default_packages.tex"
   ns0:text="$\\|u-v\\|$"
   ns0:pdfconverter="pstoedit"
   ns0:texconverter="pdflatex"
   ns0:version="0.8.1"
   word-spacing="normal"
   letter-spacing="normal"
   font-size-adjust="none"
   font-stretch="normal"
   font-weight="normal"
   font-variant="normal"
   font-style="normal"
   stroke-miterlimit="10.433"
   xml:space="preserve"
   transform="matrix(1.228954,0,0,1.228954,-20.22603,-93.412734)"
   id="g3932">
<path
   id="path3918"
   style="fill:#000000;fill-opacity:1;stroke:#000000;stroke-width:0;stroke-opacity:1"
   d="m 150.43,664.35 v 0.03 0.03 0.03 l -0.01,0.01 v 0.02 0.01 0.02 0.01 0.01 l -0.01,0.02 v 0.01 0.01 l -0.01,0.02 v 0.01 l -0.01,0.01 v 0.01 l -0.01,0.01 -0.01,0.01 -0.01,0.01 -0.01,0.01 h -0.01 v 0.01 h -0.01 v 0 l -0.01,0.01 h -0.01 v 0 h -0.01 l -0.01,0.01 v 0 h -0.01 -0.01 -0.01 -0.01 v 0 h -0.01 -0.01 c -0.2,0 -0.2,-0.21 -0.2,-0.36 v -9.2 c 0,-0.16 0,-0.37 0.2,-0.37 0.2,0 0.2,0.18 0.2,0.34 z"
   inkscape:connector-curvature="0" />
<path
   id="path3920"
   style="fill:#000000;fill-opacity:1;stroke:#000000;stroke-width:0;stroke-opacity:1"
   d="m 152.37,664.32 v 0.03 0.03 0.03 0.03 0.02 0.01 l -0.01,0.02 v 0.01 0.02 0.01 l -0.01,0.02 v 0.01 l -0.01,0.01 v 0.02 l -0.01,0.01 -0.01,0.01 v 0.01 l -0.01,0.01 -0.01,0.01 -0.01,0.01 h -0.01 v 0.01 h -0.01 -0.01 v 0.01 h -0.01 v 0 l -0.01,0.01 h -0.01 -0.01 v 0 h -0.01 -0.01 -0.01 -0.01 -0.01 c -0.2,0 -0.2,-0.17 -0.2,-0.33 v -9.26 c 0,-0.16 0,-0.34 0.2,-0.34 0.2,0 0.2,0.22 0.2,0.37 z"
   inkscape:connector-curvature="0" />
<path
   id="path3922"
   style="fill:#000000;fill-opacity:1;stroke:#000000;stroke-width:0;stroke-opacity:1"
   d="m 157.18,657.79 0.02,-0.04 0.01,-0.03 0.01,-0.04 0.02,-0.03 0.01,-0.04 0.02,-0.03 0.02,-0.03 0.02,-0.03 0.02,-0.03 0.02,-0.03 0.03,-0.03 0.02,-0.03 0.03,-0.02 0.02,-0.03 0.03,-0.02 0.03,-0.02 0.03,-0.03 0.03,-0.02 0.03,-0.01 0.03,-0.02 0.03,-0.02 0.04,-0.01 0.03,-0.02 0.04,-0.01 0.03,-0.01 0.04,-0.01 0.04,-0.01 h 0.04 l 0.03,-0.01 h 0.04 0.04 0.04 c 0.35,0 0.58,0.22 0.74,0.54 0.17,0.36 0.3,0.97 0.3,0.99 0,0.1 -0.09,0.1 -0.12,0.1 -0.1,0 -0.11,-0.04 -0.14,-0.18 -0.14,-0.56 -0.33,-1.24 -0.75,-1.24 -0.21,0 -0.31,0.13 -0.31,0.46 0,0.22 0.12,0.69 0.2,1.03 l 0.28,1.08 c 0.03,0.15 0.13,0.52 0.17,0.67 0.05,0.23 0.15,0.61 0.15,0.67 0,0.18 -0.14,0.27 -0.29,0.27 -0.05,0 -0.31,-0.01 -0.39,-0.35 -0.19,-0.73 -0.63,-2.46 -0.75,-2.99 -0.01,-0.04 -0.4,-0.84 -1.13,-0.84 -0.52,0 -0.62,0.45 -0.62,0.82 0,0.56 0.28,1.34 0.54,2.02 0.12,0.3 0.17,0.44 0.17,0.63 0,0.45 -0.32,0.82 -0.82,0.82 -0.95,0 -1.32,-1.45 -1.32,-1.53 0,-0.1 0.1,-0.1 0.12,-0.1 0.1,0 0.11,0.02 0.16,0.17 0.25,0.87 0.63,1.24 1.01,1.24 0.09,0 0.25,-0.01 0.25,-0.33 0,-0.24 -0.11,-0.53 -0.17,-0.68 -0.37,-0.98 -0.58,-1.6 -0.58,-2.08 0,-0.95 0.69,-1.19 1.23,-1.19 0.66,0 1.01,0.44 1.18,0.66 z"
   inkscape:connector-curvature="0" />
<path
   id="path3924"
   style="fill:#000000;fill-opacity:1;stroke:#000000;stroke-width:0;stroke-opacity:1"
   d="m 168.18,659.52 h 0.03 0.04 0.03 0.01 0.02 0.01 l 0.02,0.01 h 0.01 0.02 0.01 l 0.02,0.01 h 0.01 0.01 l 0.01,0.01 0.01,0.01 h 0.02 l 0.01,0.01 0.01,0.01 h 0.01 v 0.01 l 0.01,0.01 v 0.01 h 0.01 v 0.01 0.01 h 0.01 v 0.01 0.01 0 l 0.01,0.01 v 0.01 0.01 0 0.01 0.01 0.01 0.01 c 0,0.2 -0.18,0.2 -0.35,0.2 h -5.39 c -0.17,0 -0.35,0 -0.35,-0.2 0,-0.2 0.18,-0.2 0.35,-0.2 z"
   inkscape:connector-curvature="0" />
<path
   id="path3926"
   style="fill:#000000;fill-opacity:1;stroke:#000000;stroke-width:0;stroke-opacity:1"
   d="m 176.24,660.93 v 0.02 0.03 0.02 0.03 0.02 l -0.01,0.02 v 0.02 0.02 l -0.01,0.04 -0.01,0.04 v 0.04 l -0.01,0.04 -0.01,0.03 -0.02,0.03 -0.01,0.03 -0.01,0.03 -0.02,0.02 -0.01,0.03 -0.02,0.02 -0.01,0.02 -0.02,0.02 -0.02,0.02 -0.01,0.01 -0.02,0.02 -0.02,0.01 -0.02,0.01 -0.02,0.01 -0.01,0.01 -0.02,0.01 -0.02,0.01 h -0.02 l -0.02,0.01 h -0.02 -0.01 l -0.02,0.01 h -0.02 c -0.25,0 -0.49,-0.26 -0.49,-0.48 0,-0.13 0.05,-0.19 0.16,-0.3 0.21,-0.2 0.34,-0.46 0.34,-0.81 0,-0.42 -0.61,-2.7 -1.77,-2.7 -0.51,0 -0.74,0.35 -0.74,0.87 0,0.56 0.27,1.28 0.58,2.1 0.07,0.17 0.12,0.31 0.12,0.5 0,0.45 -0.32,0.82 -0.82,0.82 -0.94,0 -1.32,-1.45 -1.32,-1.53 0,-0.1 0.1,-0.1 0.12,-0.1 0.1,0 0.11,0.02 0.16,0.17 0.29,1.01 0.72,1.24 1.01,1.24 0.08,0 0.25,0 0.25,-0.32 0,-0.25 -0.1,-0.52 -0.17,-0.7 -0.44,-1.15 -0.57,-1.61 -0.57,-2.03 0,-1.08 0.88,-1.23 1.34,-1.23 1.67,0 2.24,3.28 2.24,3.8 z"
   inkscape:connector-curvature="0" />
<path
   id="path3928"
   style="fill:#000000;fill-opacity:1;stroke:#000000;stroke-width:0;stroke-opacity:1"
   d="m 178.48,664.35 -0.01,0.03 v 0.03 0.03 0.01 0.02 0.01 0.02 0.01 l -0.01,0.01 v 0.02 0.01 l -0.01,0.01 v 0.02 0.01 l -0.01,0.01 -0.01,0.01 v 0.01 l -0.01,0.01 -0.01,0.01 -0.01,0.01 h -0.01 v 0.01 h -0.01 -0.01 v 0.01 h -0.01 v 0 h -0.01 l -0.01,0.01 h -0.01 v 0 h -0.01 -0.01 -0.01 -0.01 v 0 h -0.01 c -0.2,0 -0.2,-0.21 -0.2,-0.36 v -9.2 c 0,-0.16 0,-0.37 0.2,-0.37 0.2,0 0.2,0.18 0.2,0.34 z"
   inkscape:connector-curvature="0" />
<path
   id="path3930"
   style="fill:#000000;fill-opacity:1;stroke:#000000;stroke-width:0;stroke-opacity:1"
   d="m 180.42,664.32 v 0.03 0.03 0.03 0.03 0.02 l -0.01,0.01 v 0.02 0.01 0.02 l -0.01,0.01 v 0.02 l -0.01,0.01 v 0.01 l -0.01,0.02 v 0.01 l -0.01,0.01 -0.01,0.01 v 0.01 l -0.01,0.01 -0.01,0.01 h -0.01 l -0.01,0.01 v 0 h -0.01 v 0.01 h -0.01 -0.01 v 0.01 h -0.01 -0.01 -0.01 v 0 h -0.01 -0.01 -0.01 -0.01 c -0.2,0 -0.2,-0.17 -0.2,-0.33 v -9.26 c 0,-0.16 0,-0.34 0.2,-0.34 0.2,0 0.2,0.22 0.2,0.37 z"
   inkscape:connector-curvature="0" />
</g><g
   id="g4072"
   transform="matrix(1.228954,0,0,1.228954,22.353903,-59.06963)"
   xml:space="preserve"
   stroke-miterlimit="10.433"
   font-style="normal"
   font-variant="normal"
   font-weight="normal"
   font-stretch="normal"
   font-size-adjust="none"
   letter-spacing="normal"
   word-spacing="normal"
   ns0:version="0.8.1"
   ns0:texconverter="pdflatex"
   ns0:pdfconverter="pstoedit"
   ns0:text="$u=T(x)$"
   ns0:preamble="C:\\Users\\Shuvomoy Das Gupta\\AppData\\Roaming\\inkscape\\extensions\\default_packages.tex"
   ns0:scale="3.48364786082"
   ns0:alignment="middle center"
   ns0:jacobian_sqrt="1.228954"
   style="font-style:normal;font-variant:normal;font-weight:normal;font-stretch:normal;letter-spacing:normal;word-spacing:normal;text-anchor:start;fill:none;fill-opacity:1;fill-rule:evenodd;stroke:#000000;stroke-linecap:butt;stroke-linejoin:miter;stroke-miterlimit:10.43299961;stroke-dasharray:none;stroke-dashoffset:0;stroke-opacity:1">
<path
   inkscape:connector-curvature="0"
   d="m 156.71479,660.12524 0.01,-0.04 0.02,-0.03 0.01,-0.04 0.01,-0.03 0.02,-0.04 0.02,-0.03 0.02,-0.03 0.02,-0.03 0.02,-0.03 0.02,-0.03 0.02,-0.03 0.03,-0.03 0.02,-0.02 0.03,-0.03 0.03,-0.02 0.03,-0.02 0.03,-0.03 0.03,-0.02 0.03,-0.01 0.03,-0.02 0.03,-0.02 0.04,-0.01 0.03,-0.02 0.04,-0.01 0.03,-0.01 0.04,-0.01 0.04,-0.01 h 0.03 l 0.04,-0.01 h 0.04 0.04 0.04 c 0.35,0 0.58,0.22 0.74,0.54 0.17,0.36 0.3,0.97 0.3,0.99 0,0.1 -0.09,0.1 -0.12,0.1 -0.1,0 -0.11,-0.04 -0.14,-0.18 -0.14,-0.56 -0.33,-1.24 -0.75,-1.24 -0.21,0 -0.31,0.13 -0.31,0.46 0,0.22 0.12,0.69 0.2,1.03 l 0.28,1.08 c 0.03,0.15 0.13,0.52 0.17,0.67 0.05,0.23 0.15,0.61 0.15,0.67 0,0.18 -0.14,0.27 -0.29,0.27 -0.05,0 -0.31,-0.01 -0.39,-0.35 -0.19,-0.73 -0.63,-2.46 -0.75,-2.99 -0.01,-0.04 -0.41,-0.84 -1.14,-0.84 -0.51,0 -0.61,0.45 -0.61,0.82 0,0.56 0.28,1.34 0.54,2.02 0.12,0.3 0.16,0.44 0.16,0.63 0,0.45 -0.31,0.82 -0.81,0.82 -0.95,0 -1.32,-1.45 -1.32,-1.53 0,-0.1 0.1,-0.1 0.12,-0.1 0.1,0 0.11,0.02 0.16,0.17 0.25,0.87 0.63,1.24 1.01,1.24 0.09,0 0.25,-0.01 0.25,-0.33 0,-0.24 -0.11,-0.53 -0.17,-0.68 -0.37,-0.98 -0.58,-1.6 -0.58,-2.08 0,-0.95 0.69,-1.19 1.23,-1.19 0.65,0 1.01,0.44 1.18,0.66 z"
   style="fill:#000000;fill-opacity:1;stroke:#000000;stroke-width:0;stroke-opacity:1"
   id="path4058" />






</g><path
   inkscape:connector-curvature="0"
   d="m 168.54479,662.81524 h 0.03 0.03 0.03 l 0.02,0.01 h 0.01 0.01 0.02 0.01 0.02 l 0.01,0.01 h 0.01 0.02 l 0.01,0.01 h 0.01 l 0.01,0.01 h 0.01 l 0.02,0.01 0.01,0.01 v 0.01 l 0.01,0.01 0.01,0.01 v 0 l 0.01,0.01 v 0 0.01 l 0.01,0.01 v 0 0.01 0.01 h 0.01 v 0.01 0.01 0.01 0.01 0 0.01 0.01 c 0,0.2 -0.19,0.2 -0.33,0.2 h -5.97 c -0.14,0 -0.33,0 -0.33,-0.2 0,-0.2 0.19,-0.2 0.34,-0.2 z"
   style="fill:#000000;fill-opacity:1;stroke:#000000;stroke-width:0;stroke-opacity:1"
   id="path4060"
   transform="matrix(1.228954,0,0,1.228954,22.353905,-59.069619)" /><path
   inkscape:connector-curvature="0"
   d="m 168.55479,660.89524 h 0.02 0.01 0.03 0.03 0.01 0.01 0.02 0.01 0.02 l 0.01,0.01 h 0.01 0.02 l 0.01,0.01 h 0.01 l 0.01,0.01 h 0.01 l 0.02,0.01 h 0.01 l 0.01,0.01 v 0.01 l 0.01,0.01 h 0.01 v 0.01 0.01 h 0.01 v 0.01 0 l 0.01,0.01 v 0.01 0 0.01 l 0.01,0.01 v 0 0.01 0.01 0.01 0.01 0.01 0.01 c 0,0.19 -0.19,0.19 -0.34,0.19 h -5.95 c -0.15,0 -0.34,0 -0.34,-0.19 0,-0.2 0.19,-0.2 0.33,-0.2 z"
   style="fill:#000000;fill-opacity:1;stroke:#000000;stroke-width:0;stroke-opacity:1"
   id="path4062"
   transform="matrix(1.228954,0,0,1.228954,22.353905,-59.069619)" /><path
   inkscape:connector-curvature="0"
   d="m 176.47479,665.60524 v 0.02 l 0.01,0.02 0.01,0.03 v 0.02 l 0.01,0.02 v 0.02 l 0.01,0.02 0.01,0.02 v 0.01 l 0.01,0.02 v 0.01 l 0.01,0.02 v 0.01 l 0.01,0.01 0.01,0.01 v 0.01 l 0.01,0.01 0.01,0.01 v 0.01 l 0.01,0.01 h 0.01 v 0.01 l 0.01,0.01 h 0.01 l 0.01,0.01 h 0.01 l 0.01,0.01 v 0 h 0.01 l 0.01,0.01 h 0.02 0.01 c 0.09,0.02 0.41,0.02 0.63,0.02 1,0 1.45,-0.04 1.45,-0.81 0,-0.15 -0.04,-0.54 -0.08,-0.8 -0.01,-0.04 -0.03,-0.16 -0.03,-0.19 0,-0.06 0.03,-0.13 0.12,-0.13 0.11,0 0.13,0.08 0.15,0.23 l 0.27,1.73 c 0.01,0.04 0.02,0.14 0.02,0.17 0,0.11 -0.1,0.11 -0.27,0.11 h -5.53 c -0.24,0 -0.25,-0.01 -0.32,-0.2 l -0.6,-1.75 c -0.01,-0.02 -0.06,-0.16 -0.06,-0.18 0,-0.05 0.05,-0.11 0.12,-0.11 0.1,0 0.11,0.06 0.17,0.21 0.54,1.54 0.79,1.72 2.27,1.72 h 0.39 c 0.28,0 0.28,-0.04 0.28,-0.12 0,-0.06 -0.03,-0.18 -0.04,-0.21 l -1.34,-5.3 c -0.09,-0.37 -0.12,-0.48 -1.18,-0.48 -0.36,0 -0.42,0 -0.42,-0.19 0,-0.12 0.11,-0.12 0.17,-0.12 0.27,0 0.55,0.03 0.82,0.03 0.27,0 0.56,0.01 0.84,0.01 0.28,0 0.56,-0.01 0.83,-0.01 0.29,0 0.59,-0.03 0.87,-0.03 0.1,0 0.22,0 0.22,0.2 0,0.11 -0.08,0.11 -0.34,0.11 -0.25,0 -0.38,0 -0.64,0.02 -0.29,0.03 -0.37,0.06 -0.37,0.22 0,0.01 0,0.06 0.04,0.21 z"
   style="fill:#000000;fill-opacity:1;stroke:#000000;stroke-width:0;stroke-opacity:1"
   id="path4064"
   transform="matrix(1.228954,0,0,1.228954,22.353905,-59.069619)" /><path
   inkscape:connector-curvature="0"
   d="m 182.72479,657.18524 v 0.01 0 0 l -0.01,0.01 v 0 0 0.01 0 0 0.01 h -0.01 v 0.01 0 l -0.01,0.01 v 0 0.01 l -0.01,0.01 h -0.01 v 0.01 0 l -0.01,0.01 v 0 0 l -0.01,0.01 v 0 l -0.01,0.01 v 0 l -0.01,0.01 v 0 l -0.01,0.01 v 0 l -0.01,0.01 v 0.01 h -0.01 v 0.01 l -0.01,0.01 h -0.01 v 0.01 l -0.01,0.01 h -0.01 l -0.01,0.01 v 0.01 c -1.25,1.25 -1.57,3.13 -1.57,4.65 0,1.73 0.38,3.45 1.61,4.7 0.13,0.12 0.13,0.14 0.13,0.17 0,0.07 -0.04,0.09 -0.1,0.09 -0.1,0 -1,-0.67 -1.59,-1.93 -0.51,-1.09 -0.63,-2.2 -0.63,-3.03 0,-0.78 0.11,-1.98 0.66,-3.1 0.6,-1.22 1.46,-1.87 1.56,-1.87 0.06,0 0.1,0.03 0.1,0.1 z"
   style="fill:#000000;fill-opacity:1;stroke:#000000;stroke-width:0;stroke-opacity:1"
   id="path4066"
   transform="matrix(1.228954,0,0,1.228954,22.353905,-59.069619)" /><path
   inkscape:connector-curvature="0"
   d="m 186.62479,662.56524 0.01,0.03 v 0.03 l 0.01,0.03 0.01,0.04 0.01,0.04 0.01,0.04 0.02,0.04 0.01,0.05 0.02,0.04 0.01,0.05 0.02,0.05 0.02,0.05 0.03,0.05 0.02,0.05 0.03,0.05 0.02,0.05 0.03,0.05 0.03,0.04 0.04,0.05 0.03,0.04 0.04,0.05 0.04,0.04 0.04,0.04 0.05,0.03 0.04,0.03 0.05,0.03 0.03,0.01 0.02,0.02 0.03,0.01 0.03,0.01 0.02,0.01 h 0.03 l 0.03,0.01 0.03,0.01 h 0.03 0.03 l 0.03,0.01 h 0.04 c 0.05,0 0.29,0 0.5,-0.13 -0.28,-0.05 -0.48,-0.3 -0.48,-0.54 0,-0.16 0.11,-0.35 0.38,-0.35 0.21,0 0.53,0.18 0.53,0.58 0,0.52 -0.58,0.66 -0.92,0.66 -0.58,0 -0.93,-0.53 -1.05,-0.76 -0.25,0.66 -0.79,0.76 -1.08,0.76 -1.03,0 -1.6,-1.29 -1.6,-1.53 0,-0.1 0.1,-0.1 0.12,-0.1 0.08,0 0.11,0.02 0.13,0.11 0.34,1.05 0.99,1.3 1.33,1.3 0.19,0 0.54,-0.09 0.54,-0.67 0,-0.31 -0.17,-0.97 -0.54,-2.36 -0.16,-0.62 -0.51,-1.04 -0.94,-1.04 -0.06,0 -0.29,0 -0.5,0.13 0.25,0.05 0.47,0.26 0.47,0.54 0,0.27 -0.22,0.35 -0.37,0.35 -0.3,0 -0.55,-0.26 -0.55,-0.58 0,-0.46 0.5,-0.65 0.94,-0.65 0.65,0 1.01,0.69 1.04,0.75 0.12,-0.37 0.48,-0.75 1.08,-0.75 1.03,0 1.6,1.28 1.6,1.53 0,0.1 -0.1,0.1 -0.13,0.1 -0.08,0 -0.1,-0.04 -0.12,-0.11 -0.33,-1.07 -1.01,-1.31 -1.33,-1.31 -0.39,0 -0.55,0.32 -0.55,0.66 0,0.22 0.06,0.44 0.17,0.87 z"
   style="fill:#000000;fill-opacity:1;stroke:#000000;stroke-width:0;stroke-opacity:1"
   id="path4068"
   transform="matrix(1.228954,0,0,1.228954,22.353905,-59.069619)" /><path
   inkscape:connector-curvature="0"
   d="m 191.86479,662.05524 v 0.07 0.08 0.08 0.08 l -0.01,0.17 -0.01,0.17 -0.02,0.18 -0.02,0.19 -0.03,0.2 -0.03,0.2 -0.04,0.2 -0.04,0.21 -0.06,0.21 -0.06,0.21 -0.07,0.21 -0.08,0.21 -0.04,0.11 -0.05,0.11 -0.04,0.1 -0.05,0.11 c -0.6,1.22 -1.46,1.86 -1.56,1.86 -0.06,0 -0.1,-0.03 -0.1,-0.09 0,-0.03 0,-0.05 0.19,-0.23 0.98,-0.99 1.55,-2.57 1.55,-4.64 0,-1.7 -0.37,-3.45 -1.61,-4.7 -0.13,-0.12 -0.13,-0.14 -0.13,-0.17 0,-0.06 0.04,-0.1 0.1,-0.1 0.1,0 1,0.68 1.59,1.94 0.51,1.09 0.62,2.19 0.62,3.03 z"
   style="fill:#000000;fill-opacity:1;stroke:#000000;stroke-width:0;stroke-opacity:1"
   id="path4070"
   transform="matrix(1.228954,0,0,1.228954,22.353905,-59.069619)" /><g
   style="font-style:normal;font-variant:normal;font-weight:normal;font-stretch:normal;letter-spacing:normal;word-spacing:normal;text-anchor:start;fill:none;fill-opacity:1;fill-rule:evenodd;stroke:#000000;stroke-linecap:butt;stroke-linejoin:miter;stroke-miterlimit:10.43299961;stroke-dasharray:none;stroke-dashoffset:0;stroke-opacity:1"
   ns0:jacobian_sqrt="1.228954"
   ns0:alignment="middle center"
   ns0:scale="3.48364786082"
   ns0:preamble="C:\\Users\\Shuvomoy Das Gupta\\AppData\\Roaming\\inkscape\\extensions\\default_packages.tex"
   ns0:text="$v=T(y)$"
   ns0:pdfconverter="pstoedit"
   ns0:texconverter="pdflatex"
   ns0:version="0.8.1"
   word-spacing="normal"
   letter-spacing="normal"
   font-size-adjust="none"
   font-stretch="normal"
   font-weight="normal"
   font-variant="normal"
   font-style="normal"
   stroke-miterlimit="10.433"
   xml:space="preserve"
   transform="matrix(1.228954,0,0,1.228954,-114.52429,-116.85023)"
   id="g4234">
<path
   id="path4220"
   style="fill:#000000;fill-opacity:1;stroke:#000000;stroke-width:0;stroke-opacity:1"
   d="m 153.38,660.93 v 0.02 0.03 0.02 0.03 l -0.01,0.02 v 0.02 0.02 0.02 l -0.01,0.04 -0.01,0.04 v 0.04 l -0.01,0.04 -0.01,0.03 -0.02,0.03 -0.01,0.03 -0.01,0.03 -0.02,0.02 -0.01,0.03 -0.02,0.02 -0.01,0.02 -0.02,0.02 -0.02,0.02 -0.01,0.01 -0.02,0.02 -0.02,0.01 -0.02,0.01 -0.02,0.01 -0.02,0.01 -0.01,0.01 -0.02,0.01 h -0.02 l -0.02,0.01 h -0.02 -0.02 l -0.01,0.01 h -0.02 c -0.25,0 -0.49,-0.26 -0.49,-0.48 0,-0.13 0.05,-0.19 0.16,-0.3 0.21,-0.2 0.34,-0.46 0.34,-0.81 0,-0.42 -0.61,-2.7 -1.77,-2.7 -0.51,0 -0.74,0.35 -0.74,0.87 0,0.56 0.27,1.28 0.58,2.1 0.07,0.17 0.11,0.31 0.11,0.5 0,0.45 -0.31,0.82 -0.81,0.82 -0.94,0 -1.32,-1.45 -1.32,-1.53 0,-0.1 0.1,-0.1 0.12,-0.1 0.1,0 0.11,0.02 0.16,0.17 0.29,1.01 0.72,1.24 1.01,1.24 0.08,0 0.25,0 0.25,-0.32 0,-0.25 -0.1,-0.52 -0.17,-0.7 -0.44,-1.15 -0.57,-1.61 -0.57,-2.03 0,-1.08 0.88,-1.23 1.33,-1.23 1.68,0 2.25,3.28 2.25,3.8 z"
   inkscape:connector-curvature="0" />
<path
   id="path4222"
   style="fill:#000000;fill-opacity:1;stroke:#000000;stroke-width:0;stroke-opacity:1"
   d="m 163.52,660.48 h 0.03 0.02 0.03 l 0.02,0.01 h 0.01 0.02 0.01 0.02 0.01 l 0.01,0.01 h 0.02 0.01 l 0.01,0.01 h 0.01 l 0.02,0.01 h 0.01 l 0.01,0.01 0.01,0.01 0.01,0.01 0.01,0.01 v 0.01 h 0.01 v 0.01 0 l 0.01,0.01 v 0.01 0 l 0.01,0.01 v 0.01 0 0.01 0.01 0.01 0.01 h 0.01 v 0.01 0.01 c 0,0.2 -0.19,0.2 -0.33,0.2 h -5.98 c -0.14,0 -0.33,0 -0.33,-0.2 0,-0.2 0.19,-0.2 0.34,-0.2 z"
   inkscape:connector-curvature="0" />
<path
   id="path4224"
   style="fill:#000000;fill-opacity:1;stroke:#000000;stroke-width:0;stroke-opacity:1"
   d="m 163.53,658.56 h 0.01 0.01 0.03 0.03 0.01 0.02 0.01 0.01 0.02 l 0.01,0.01 h 0.02 0.01 l 0.01,0.01 h 0.01 l 0.02,0.01 h 0.01 l 0.01,0.01 h 0.01 l 0.01,0.01 0.01,0.01 0.01,0.01 v 0 0.01 l 0.01,0.01 v 0 0.01 h 0.01 v 0.01 0.01 h 0.01 v 0.01 0.01 0 0.01 0.01 0.01 l 0.01,0.01 v 0.01 0.01 c 0,0.19 -0.19,0.19 -0.34,0.19 h -5.96 c -0.15,0 -0.34,0 -0.34,-0.19 0,-0.2 0.19,-0.2 0.33,-0.2 z"
   inkscape:connector-curvature="0" />
<path
   id="path4226"
   style="fill:#000000;fill-opacity:1;stroke:#000000;stroke-width:0;stroke-opacity:1"
   d="m 171.44,663.27 0.01,0.02 v 0.02 l 0.01,0.03 0.01,0.02 v 0.02 l 0.01,0.02 v 0.02 l 0.01,0.02 v 0.01 l 0.01,0.02 0.01,0.01 v 0.02 l 0.01,0.01 v 0.01 l 0.01,0.01 0.01,0.01 v 0.01 l 0.01,0.01 0.01,0.01 v 0.01 h 0.01 l 0.01,0.01 v 0.01 h 0.01 l 0.01,0.01 h 0.01 l 0.01,0.01 h 0.01 0.01 l 0.01,0.01 h 0.01 0.01 c 0.09,0.02 0.42,0.02 0.63,0.02 1,0 1.45,-0.04 1.45,-0.81 0,-0.15 -0.04,-0.54 -0.08,-0.8 -0.01,-0.04 -0.03,-0.16 -0.03,-0.19 0,-0.06 0.03,-0.13 0.12,-0.13 0.11,0 0.13,0.08 0.15,0.23 l 0.27,1.73 c 0.01,0.04 0.02,0.14 0.02,0.17 0,0.11 -0.1,0.11 -0.27,0.11 h -5.53 c -0.24,0 -0.25,-0.01 -0.32,-0.2 l -0.6,-1.75 c -0.01,-0.02 -0.06,-0.16 -0.06,-0.18 0,-0.05 0.05,-0.11 0.12,-0.11 0.1,0 0.11,0.06 0.17,0.21 0.54,1.54 0.8,1.72 2.27,1.72 h 0.39 c 0.28,0 0.28,-0.04 0.28,-0.12 0,-0.06 -0.03,-0.18 -0.04,-0.21 l -1.33,-5.3 c -0.09,-0.37 -0.12,-0.48 -1.19,-0.48 -0.36,0 -0.42,0 -0.42,-0.19 0,-0.12 0.11,-0.12 0.17,-0.12 0.27,0 0.55,0.03 0.82,0.03 0.28,0 0.57,0.01 0.85,0.01 0.28,0 0.55,-0.01 0.82,-0.01 0.29,0 0.59,-0.03 0.87,-0.03 0.1,0 0.22,0 0.22,0.2 0,0.11 -0.08,0.11 -0.34,0.11 -0.25,0 -0.38,0 -0.64,0.02 -0.29,0.03 -0.37,0.06 -0.37,0.22 0,0.01 0,0.06 0.04,0.21 z"
   inkscape:connector-curvature="0" />
<path
   id="path4228"
   style="fill:#000000;fill-opacity:1;stroke:#000000;stroke-width:0;stroke-opacity:1"
   d="m 177.69,654.85 v 0.01 0 0 0.01 0 0 0.01 h -0.01 v 0 0.01 0 l -0.01,0.01 v 0 0.01 h -0.01 v 0.01 l -0.01,0.01 v 0 l -0.01,0.01 v 0 0.01 h -0.01 v 0 0.01 h -0.01 v 0.01 h -0.01 v 0.01 h -0.01 v 0.01 h -0.01 V 655 l -0.01,0.01 v 0 l -0.01,0.01 -0.01,0.01 v 0 l -0.01,0.01 -0.01,0.01 h -0.01 v 0.01 l -0.01,0.01 c -1.25,1.25 -1.57,3.13 -1.57,4.65 0,1.73 0.38,3.45 1.61,4.7 0.13,0.12 0.13,0.14 0.13,0.17 0,0.07 -0.04,0.09 -0.1,0.09 -0.1,0 -1,-0.67 -1.59,-1.93 -0.51,-1.09 -0.62,-2.2 -0.62,-3.03 0,-0.78 0.11,-1.98 0.65,-3.1 0.6,-1.22 1.46,-1.87 1.56,-1.87 0.06,0 0.1,0.03 0.1,0.1 z"
   inkscape:connector-curvature="0" />
<path
   id="path4230"
   style="fill:#000000;fill-opacity:1;stroke:#000000;stroke-width:0;stroke-opacity:1"
   d="m 183.11,661.02 v 0.01 0 0.01 h 0.01 v 0.02 0.01 0.01 l 0.01,0.01 v 0.01 0 0.01 0.01 l 0.01,0.01 v 0.01 0 0.01 0 0.01 0.01 0 l 0.01,0.01 v 0 0.01 0.01 0.01 0.01 0.01 0.01 0 0.01 c 0,0.18 -0.14,0.27 -0.29,0.27 -0.1,0 -0.26,-0.06 -0.35,-0.21 -0.02,-0.05 -0.1,-0.36 -0.14,-0.54 -0.07,-0.26 -0.14,-0.53 -0.2,-0.79 l -0.45,-1.79 c -0.04,-0.15 -0.47,-0.85 -1.12,-0.85 -0.51,0 -0.62,0.44 -0.62,0.81 0,0.46 0.17,1.07 0.51,1.95 0.16,0.4 0.19,0.51 0.19,0.71 0,0.45 -0.31,0.82 -0.81,0.82 -0.95,0 -1.32,-1.45 -1.32,-1.53 0,-0.1 0.1,-0.1 0.12,-0.1 0.1,0 0.11,0.02 0.16,0.17 0.27,0.94 0.67,1.24 1.01,1.24 0.08,0 0.25,0 0.25,-0.32 0,-0.25 -0.1,-0.51 -0.17,-0.7 -0.4,-1.05 -0.58,-1.61 -0.58,-2.08 0,-0.89 0.63,-1.18 1.22,-1.18 0.39,0 0.72,0.16 1,0.44 -0.13,-0.51 -0.25,-1 -0.65,-1.53 -0.26,-0.33 -0.63,-0.62 -1.09,-0.62 -0.14,0 -0.59,0.03 -0.76,0.41 0.16,0 0.29,0 0.43,0.12 0.1,0.09 0.2,0.22 0.2,0.41 0,0.31 -0.27,0.35 -0.37,0.35 -0.23,0 -0.56,-0.16 -0.56,-0.65 0,-0.49 0.44,-0.86 1.06,-0.86 1.03,0 2.05,0.9 2.33,2.02 z"
   inkscape:connector-curvature="0" />
<path
   id="path4232"
   style="fill:#000000;fill-opacity:1;stroke:#000000;stroke-width:0;stroke-opacity:1"
   d="m 186.39,659.72 v 0.07 l -0.01,0.08 v 0.08 0.08 l -0.01,0.17 -0.01,0.17 -0.02,0.18 -0.02,0.19 -0.02,0.2 -0.04,0.2 -0.04,0.2 -0.04,0.21 -0.06,0.21 -0.06,0.21 -0.07,0.21 -0.08,0.21 -0.04,0.11 -0.04,0.11 -0.05,0.1 -0.05,0.11 c -0.6,1.22 -1.46,1.86 -1.56,1.86 -0.06,0 -0.1,-0.03 -0.1,-0.09 0,-0.03 0,-0.05 0.19,-0.23 0.98,-0.99 1.55,-2.57 1.55,-4.64 0,-1.7 -0.37,-3.45 -1.61,-4.7 -0.13,-0.12 -0.13,-0.14 -0.13,-0.17 0,-0.06 0.04,-0.1 0.1,-0.1 0.1,0 1,0.68 1.59,1.94 0.51,1.09 0.63,2.19 0.63,3.03 z"
   inkscape:connector-curvature="0" />
</g></g>  </g>
</svg>
